<?xml version="1.0" encoding="utf-8"?><svg xmlns="http://www.w3.org/2000/svg" xmlns:xlink="http://www.w3.org/1999/xlink"><symbol viewBox="0 0 45.621 18.386" id="arrow-right" xmlns="http://www.w3.org/2000/svg"><path d="M44.916 9.136l-7.929-7.929v15.96zm-9.983.191H0"/></symbol><symbol viewBox="0 0 265.921 363.001" id="badge" xmlns="http://www.w3.org/2000/svg"><defs><path id="ba" d="M.001.001h265.92v363H.001z"/></defs><clipPath id="bb"><use xlink:href="#ba" overflow="visible"/></clipPath><path d="M263.696 127.809l-19.215-25.101 4.106-31.348a7.998 7.998 0 00-4.871-8.43l-29.211-12.093-12.09-29.207a8.006 8.006 0 00-8.43-4.875l-31.347 4.105-25.102-19.211a7.994 7.994 0 00-9.726 0L102.708 20.86 71.36 16.758a8 8 0 00-8.429 4.872L50.837 50.837 21.63 62.93a7.993 7.993 0 00-4.871 8.43l4.101 31.348-19.211 25.101a7.99 7.99 0 000 9.723l19.211 25.101-4.101 31.348a7.993 7.993 0 004.871 8.43l29.207 12.094 12.094 29.207a8 8 0 006.043 4.824V354.79a7.998 7.998 0 0012.285 6.754l51.414-32.61 51.414 32.61a7.993 7.993 0 008.141.257 8.006 8.006 0 004.144-7.011V248.532a7.998 7.998 0 006.043-4.817l12.094-29.21 29.207-12.09a7.999 7.999 0 004.871-8.43l-4.102-31.352 19.211-25.101a7.998 7.998 0 000-9.723zM136.958 312.708a7.992 7.992 0 00-8.57 0l-43.414 27.535v-93.438l17.734-2.324 25.102 19.215a7.985 7.985 0 004.863 1.648c1.711 0 3.426-.55 4.859-1.648l25.106-19.215 17.734 2.324v93.438l-43.414-27.535zm92.813-157.172a7.981 7.981 0 00-1.582 5.898l3.738 28.543-26.606 11.012a8 8 0 00-4.328 4.332l-11.015 26.601-28.543-3.734a8.008 8.008 0 00-5.899 1.578l-22.863 17.5-22.863-17.5a8.006 8.006 0 00-5.903-1.578l-28.543 3.734-11.011-26.601a8.01 8.01 0 00-4.332-4.332l-26.602-11.012 3.734-28.543a7.983 7.983 0 00-1.578-5.898l-17.5-22.867 17.5-22.864a8 8 0 001.578-5.898l-3.734-28.543 26.602-11.012a8.01 8.01 0 004.332-4.332l11.015-26.601 28.539 3.738a7.998 7.998 0 005.903-1.582l22.863-17.5 22.863 17.5a8.002 8.002 0 005.903 1.582l28.539-3.738 11.015 26.601a7.994 7.994 0 004.332 4.332l26.602 11.016-3.738 28.539a7.99 7.99 0 001.582 5.902l17.5 22.863-17.5 22.864zm0 0" clip-path="url(#bb)"/><path d="M83.806 81.059a7.98 7.98 0 005.07-1.816c12.301-10.098 27.852-15.656 43.797-15.656a8 8 0 000-16c-19.637 0-38.793 6.851-53.949 19.285a8.001 8.001 0 00-1.106 11.261 7.988 7.988 0 006.188 2.926zm0 0"/><path d="M161.2 52.489a8 8 0 10-5.363 15.074c27.465 9.774 45.918 35.938 45.918 65.109 0 38.09-30.988 69.083-69.082 69.083s-69.082-30.993-69.082-69.083c0-13.55 3.918-26.667 11.332-37.933a8.003 8.003 0 00-2.281-11.082c-3.692-2.426-8.653-1.406-11.082 2.285-9.141 13.883-13.969 30.043-13.969 46.73 0 46.915 38.168 85.083 85.082 85.083s85.082-38.168 85.082-85.083c0-35.921-22.727-68.144-56.555-80.183zm0 0"/></symbol><symbol viewBox="-49 141 512 512" id="clock" xmlns="http://www.w3.org/2000/svg"><path d="M423.944 261.825c-24.661-39.431-59.539-71.458-100.866-92.616a7.495 7.495 0 00-10.089 3.256 7.496 7.496 0 003.256 10.089c81.097 41.519 131.475 123.734 131.475 214.56 0 132.812-108.051 240.863-240.863 240.863S-34.008 529.928-34.008 397.115c0-167.698 168.668-285.15 326.203-225.249 3.864 1.466 8.199-.472 9.671-4.344a7.498 7.498 0 00-4.344-9.671C130.562 94.372-49 218.46-49 397.115c0 141.079 114.776 255.856 255.856 255.856 200.191 0 323.328-221.264 217.088-391.146z"/><path d="M152.234 488.456a7.498 7.498 0 0010.217-2.832l33.504-59.199c20.191 6.991 41.133-8.144 41.133-29.309 0-14.516-10.028-26.731-23.519-30.092V260.947a7.495 7.495 0 00-7.496-7.496 7.495 7.495 0 00-7.496 7.496v106.076c-22.846 5.693-31.287 33.904-15.204 51.193l-33.97 60.024a7.495 7.495 0 002.831 10.216zm53.839-107.363c8.836 0 16.023 7.186 16.023 16.021s-7.187 16.021-16.023 16.021c-8.835 0-16.021-7.186-16.021-16.021 0-8.833 7.186-16.021 16.021-16.021z"/><path d="M169.15 190.283C70.21 208.218-3.217 294.806-3.217 397.039c0 116.063 94.088 210.15 210.15 210.15 47.122 0 90.622-15.51 125.674-41.705 41.407-31.004 71.035-76.906 80.893-129.681.097-.52.205-1.033.298-1.554.034-.19.061-.383.096-.573a211.39 211.39 0 003.188-36.599c-.025-130.729-118.875-230.361-247.932-206.794zm185.858 303.489l15.849 9.15a196.775 196.775 0 01-63.392 61.447l-8.438-14.615a7.497 7.497 0 00-12.984 7.496l8.294 14.365c-24.448 12.307-51.817 19.621-80.768 20.605v-14.479a7.495 7.495 0 00-7.496-7.496 7.495 7.495 0 00-7.496 7.496v14.42c-31.293-1.313-60.702-10.024-86.525-24.43l6.052-10.48a7.497 7.497 0 00-12.984-7.496l-5.875 10.175a196.78 196.78 0 01-58.943-61.056l8.837-5.101a7.497 7.497 0 00-7.496-12.984l-8.687 5.015c-12.604-24.615-20.12-52.243-21.185-81.488h9.381c4.141 0 7.496-3.355 7.496-7.496s-3.355-7.496-7.496-7.496h-9.358c1.152-29.207 8.741-56.788 21.401-81.352l8.45 4.88a7.496 7.496 0 007.496-12.984l-8.565-4.945a196.737 196.737 0 0158.92-60.783l5.627 9.746a7.493 7.493 0 006.499 3.749c5.731 0 9.376-6.239 6.485-11.245l-5.793-10.034c25.759-14.319 55.076-22.975 86.265-24.284V215.9c0 4.141 3.355 7.496 7.496 7.496s7.496-3.355 7.496-7.496v-13.89c28.846.98 56.121 8.246 80.502 20.471l-8.03 13.905c-2.891 5.005.75 11.246 6.485 11.246a7.495 7.495 0 006.499-3.748l8.186-14.174a196.737 196.737 0 0163.365 61.169l-15.567 8.986a7.495 7.495 0 00-2.745 10.239 7.495 7.495 0 0010.239 2.745l15.772-9.103c14.006 25.61 22.428 54.686 23.645 85.582-.539-.006-18.389-.006-18.924-.006a7.495 7.495 0 00-7.497 7.495 7.495 7.495 0 007.495 7.497l18.845.002c.038 0 .067-.005.104-.005-1.127 30.934-9.472 60.061-23.419 85.725l-16.019-9.248a7.496 7.496 0 00-10.24 2.744 7.494 7.494 0 002.741 10.24z"/></symbol><symbol viewBox="0 0 236.19 236.19" id="design" xmlns="http://www.w3.org/2000/svg"><path d="M34.28 72.38c0 2.11-1.7 3.81-3.81 3.81-2.11 0-3.81-1.71-3.81-3.81s1.7-3.81 3.81-3.81c2.11 0 3.81 1.71 3.81 3.81zm15.24 0c0 2.11-1.7 3.81-3.81 3.81-2.11 0-3.81-1.71-3.81-3.81s1.7-3.81 3.81-3.81c2.11 0 3.81 1.71 3.81 3.81zm15.24 0c0 2.11-1.7 3.81-3.81 3.81-2.11 0-3.81-1.71-3.81-3.81s1.7-3.81 3.81-3.81c2.11 0 3.81 1.71 3.81 3.81zM26.67 209.52H75.7l-49.03-46.15v46.15zm7.61-28.51l22.2 20.89h-22.2v-20.89zm0 0"/><path d="M236.19 22.85V0h-22.85v7.62h-76.19V0h-22.86v22.85h22.86v-7.62h12.88c-12.34 8.19-20.5 22.2-20.5 38.09H22.86c-6.3 0-11.43 5.13-11.43 11.43v47.72c-3.47-2.93-6.38-2.22-7.5-1.73C2.75 111.26 0 113 0 118.09v106.67c0 6.3 5.13 11.43 11.43 11.43h114.28c4.98 0 6.71-2.47 7.29-3.94.59-1.47 1.02-4.45-2.61-7.86l-3.64-3.43h98.01c6.3 0 11.43-5.13 11.43-11.43V64.76c0-6.3-5.13-11.43-11.43-11.43h-3.81c0-15.89-8.16-29.9-20.5-38.09h12.88v7.62h22.86zM220.95 7.62h7.62v7.62h-7.62V7.62zm-91.43 7.62h-7.62V7.62h7.62v7.62zM19.05 64.76c0-2.1 1.71-3.81 3.81-3.81h107.32c0 .03.05.04.07.05 1.45 8.57 5.3 16.43 11.04 22.8H19.05V64.76zm-7.62 163.81c-2.1 0-3.81-1.71-3.81-3.81v-3.81h7.62v-7.62H7.62v-7.62h7.62v-7.62H7.62v-7.62h7.62v-7.62H7.62v-7.62h7.62v-7.62H7.62V160h7.62v-7.62H7.62v-7.62h7.62v-7.62H7.62v-17.85l39.86 37.51 11.49 10.81 64.76 60.95H11.43zm22.85-94.64v-27.26h83.81V160h-56.1l-27.71-26.07zm194.29 75.6c0 2.1-1.71 3.8-3.81 3.8h-106.1l-48.57-45.71h55.63V99.05H26.67v27.71l-7.62-7.17V91.43H150.2c.73.48 1.42 1.02 2.18 1.46v4.3c-2.29 1.74-3.81 4.47-3.81 7.57 0 2.15.74 4.12 1.96 5.71-1.22 1.6-1.96 3.57-1.96 5.72 0 5.25 4.27 9.52 9.52 9.52h34.28c5.25 0 9.53-4.27 9.53-9.52 0-2.15-.75-4.12-1.96-5.71 1.21-1.6 1.96-3.56 1.96-5.71 0-3.1-1.51-5.83-3.81-7.57v-4.3c.76-.44 1.45-.98 2.19-1.46h28.29v118.09zm-70.47-95.25h34.28c1.05 0 1.9.85 1.9 1.91a1.9 1.9 0 01-1.9 1.9H158.1c-1.06 0-1.91-.85-1.91-1.9s.85-1.91 1.91-1.91zm-1.91-9.52c0-1.05.85-1.91 1.91-1.91h34.28c1.05 0 1.9.86 1.9 1.91a1.9 1.9 0 01-1.9 1.9H158.1c-1.06.01-1.91-.85-1.91-1.9zm64.11-43.81h4.46c2.1 0 3.81 1.71 3.81 3.81v19.05h-19.38a45.25 45.25 0 0010.94-22.27c.07-.18.14-.36.17-.59zm-6.96-7.62c0 14.35-7.97 27.34-20.79 33.9l-2.07 1.06v6.94h-11.43v-27.2c6.56-1.7 11.43-7.62 11.43-14.7 0-8.4-6.83-15.24-15.24-15.24-8.4 0-15.24 6.84-15.24 15.24 0 7.08 4.88 13 11.43 14.7v27.21H160V88.3l-2.07-1.06c-12.82-6.56-20.78-19.55-20.78-33.9 0-21 17.09-38.09 38.09-38.09 21.01-.01 38.1 17.08 38.1 38.08zm-38.1 7.62c-4.2 0-7.62-3.42-7.62-7.62s3.41-7.62 7.62-7.62c4.2 0 7.62 3.41 7.62 7.62s-3.42 7.62-7.62 7.62zm0 0"/><path d="M133.34 137.14h87.62v7.62h-87.62zm0 15.24h87.62V160h-87.62zm0 15.24h87.62v7.62h-87.62zm0 15.23h87.62v7.62h-87.62z"/></symbol><symbol viewBox="-49 205 512 384" id="discount" xmlns="http://www.w3.org/2000/svg"><path d="M452.333 343.667A10.66 10.66 0 00463 333v-85.333C463 224.135 443.865 205 420.333 205H-6.333C-29.865 205-49 224.135-49 247.667V333a10.66 10.66 0 0010.667 10.667C-8.927 343.667 15 367.594 15 397s-23.927 53.333-53.333 53.333A10.66 10.66 0 00-49 461v85.333C-49 569.865-29.865 589-6.333 589h426.667C443.865 589 463 569.865 463 546.333V461a10.66 10.66 0 00-10.667-10.667C422.927 450.333 399 426.406 399 397s23.927-53.333 53.333-53.333zm-10.666 127.239v75.427c0 11.76-9.573 21.333-21.333 21.333H-6.333c-11.76 0-21.333-9.573-21.333-21.333v-75.427c36.135-5.188 64-36.354 64-73.906s-27.865-68.719-64-73.906v-75.427c0-11.76 9.573-21.333 21.333-21.333h426.667c11.76 0 21.333 9.573 21.333 21.333v75.427c-36.135 5.188-64 36.354-64 73.906s27.864 68.719 64 73.906z"/><path d="M89.667 245A10.66 10.66 0 0079 255.667v24c0 5.896 4.771 10.667 10.667 10.667s10.667-4.771 10.667-10.667v-24A10.662 10.662 0 0089.667 245zm0 88A10.66 10.66 0 0079 343.667V365c0 5.896 4.771 10.667 10.667 10.667s10.667-4.771 10.667-10.667v-21.333A10.662 10.662 0 0089.667 333zm0 85.333A10.66 10.66 0 0079 429v21.333C79 456.229 83.771 461 89.667 461s10.667-4.771 10.667-10.667V429a10.662 10.662 0 00-10.667-10.667zm0 85.334A10.66 10.66 0 0079 514.334v21.333c0 5.896 4.771 10.667 10.667 10.667s10.667-4.771 10.667-10.667v-21.333a10.662 10.662 0 00-10.667-10.667zm219.25-211.542c-4.938-3.271-11.531-1.948-14.792 2.958l-128 192a10.66 10.66 0 002.958 14.792 10.664 10.664 0 005.906 1.792 10.65 10.65 0 008.885-4.75l128-192a10.658 10.658 0 00-2.957-14.792zm-80.584 51.542c0-29.406-19.135-53.333-42.667-53.333S143 314.26 143 343.667 162.135 397 185.667 397s42.666-23.927 42.666-53.333zm-64 0c0-17.344 9.771-32 21.333-32s21.333 14.656 21.333 32-9.771 32-21.333 32-21.333-14.657-21.333-32zm128 53.333c-23.531 0-42.667 23.927-42.667 53.333s19.135 53.333 42.667 53.333S335 479.74 335 450.333 315.865 397 292.333 397zm0 85.333c-11.563 0-21.333-14.656-21.333-32s9.771-32 21.333-32 21.333 14.656 21.333 32-9.77 32-21.333 32z"/></symbol><symbol id="funds" viewBox="0 0 356.09 320.17" xml:space="preserve" xmlns="http://www.w3.org/2000/svg"><style>.fst0{clip-path:url(#fSVGID_2_)}</style><defs><path id="fSVGID_1_" d="M2.09 3.17h354v317h-354z"/></defs><clipPath id="fSVGID_2_"><use xlink:href="#fSVGID_1_" overflow="visible"/></clipPath><path class="fst0" d="M272.41 136.27c-.01-.06-.01-.13-.02-.19-.05-.32-.11-.65-.2-.96v-.01c-.08-.3-.19-.59-.3-.88-.03-.09-.07-.16-.11-.25-.09-.21-.2-.41-.31-.62-.05-.09-.09-.18-.15-.27-.03-.05-.05-.1-.08-.14-.12-.19-.25-.36-.38-.54-.02-.03-.04-.07-.07-.1-.2-.26-.42-.5-.64-.73-.04-.04-.09-.08-.13-.13-.2-.19-.4-.37-.61-.54-.05-.04-.11-.08-.16-.13-.29-.21-.58-.41-.88-.58L150.5 63.22l67.86-42.73 113.76 64.67-47.91 30.17c-3.74 2.35-4.86 7.3-2.51 11.04a7.99 7.99 0 0011.03 2.5l59.22-37.29c2.38-1.5 3.8-4.14 3.74-6.95a7.995 7.995 0 00-4.04-6.77L222.1 4.22a7.985 7.985 0 00-8.21.18l-83.17 52.37c-.02.01-.03.02-.05.03L89.11 82.97a.21.21 0 00-.06.04l-83.22 52.4a7.986 7.986 0 00-3.73 6.95c.06 2.81 1.6 5.38 4.05 6.77l129.55 73.64a7.976 7.976 0 008.21-.18l59.22-37.29c3.74-2.35 4.86-7.29 2.51-11.03-2.35-3.74-7.29-4.86-11.03-2.51l-55.17 34.74-113.77-64.67L93.53 99.1l121.34 68.97v91.35c0 2.91 1.58 5.6 4.13 7 1.21.66 2.54 1 3.87 1 1.48 0 2.96-.41 4.26-1.23l41.61-26.2a8.01 8.01 0 003.74-6.77v-96c0-.05-.01-.09-.01-.14-.01-.28-.03-.54-.06-.81zm-41.55 108.65v-81.51c0-2.88-1.55-5.53-4.05-6.95L108.89 89.42l26.25-16.53 113.77 64.66-9.96 6.27c-3.74 2.35-4.86 7.29-2.51 11.03a7.985 7.985 0 006.78 3.74c1.46 0 2.93-.4 4.25-1.23l9.01-5.67v77.09l-25.62 16.14zm0 0"/><path class="fst0" d="M343.43 110.04l-59.22 37.29c-3.74 2.35-4.86 7.29-2.51 11.03a7.985 7.985 0 006.78 3.74c1.45 0 2.93-.39 4.25-1.23l59.22-37.29a8.002 8.002 0 002.51-11.03 7.982 7.982 0 00-11.03-2.51zM194.6 203.76l-55.17 34.74-125.38-71.28a8.007 8.007 0 00-10.91 3 8.007 8.007 0 003 10.91l129.55 73.64a7.976 7.976 0 008.21-.18l59.22-37.29c3.74-2.35 4.86-7.29 2.51-11.03-2.35-3.74-7.29-4.87-11.03-2.51zm148.83-61.72l-59.22 37.29c-3.74 2.35-4.86 7.29-2.51 11.03a7.985 7.985 0 006.78 3.74c1.45 0 2.93-.39 4.25-1.23l59.22-37.29a8.002 8.002 0 002.51-11.03 7.982 7.982 0 00-11.03-2.51zm0 0"/><path class="fst0" d="M194.6 235.76l-55.17 34.74-125.38-71.28a8.007 8.007 0 00-10.91 3 8.007 8.007 0 003 10.91l129.55 73.64a7.976 7.976 0 008.21-.18l59.22-37.29c3.74-2.35 4.86-7.29 2.51-11.03a7.982 7.982 0 00-11.03-2.51zm148.83-61.72l-59.22 37.29c-3.74 2.35-4.86 7.29-2.51 11.03a7.985 7.985 0 006.78 3.74c1.45 0 2.93-.39 4.25-1.23l59.22-37.29a8.002 8.002 0 002.51-11.03 7.982 7.982 0 00-11.03-2.51zm0 0"/><path class="fst0" d="M194.6 267.76l-55.17 34.74-125.38-71.28a8.007 8.007 0 00-10.91 3 8.007 8.007 0 003 10.91l129.55 73.64a7.976 7.976 0 008.21-.18l59.22-37.29c3.74-2.35 4.86-7.29 2.51-11.03-2.35-3.74-7.29-4.87-11.03-2.51zm0 0"/></symbol><symbol viewBox="0 0 48 48" id="phases-1" xmlns="http://www.w3.org/2000/svg"><path d="M46.398 0H1.602C.641 0 0 .641 0 1.602v44.796C0 47.359.641 48 1.602 48h44.796c.961 0 1.602-.641 1.602-1.602V1.602C48 .641 47.359 0 46.398 0zm0 46.398H1.602V1.602h44.796v44.796zm0 0"/><path d="M5.602 16h36.796c.481 0 .801-.32.801-.801V5.602c0-.481-.32-.801-.801-.801H5.602c-.481 0-.801.32-.801.801v9.597c0 .481.32.801.801.801zm.796-9.602h35.204v8H6.398v-8zm-.796 24h36.796c.481 0 .801-.32.801-.796V20c0-.48-.32-.801-.801-.801H5.602c-.481 0-.801.321-.801.801v9.602c0 .476.32.796.801.796zm.796-9.597h35.204v8H6.398v-8zm15.204 12.801H6.398c-.476 0-.796.32-.796.796v8c0 .481.32.801.796.801h15.204c.476 0 .796-.32.796-.801v-8c0-.476-.32-.796-.796-.796zm-.801 8H7.199v-6.403h13.602v6.403zm20.801-8H26.398c-.476 0-.796.32-.796.796v8c0 .481.32.801.796.801h15.204c.476 0 .796-.32.796-.801v-8c0-.476-.32-.796-.796-.796zm-.801 8H27.199v-6.403h13.602v6.403zm0 0"/><path d="M30.398 37.602h7.203V39.2h-7.203zm-20 0h7.203V39.2h-7.203zm-.796-28h4V11.2h-4zm7.199 0h4V11.2h-4zm7.199 0h4V11.2h-4zm7.199 0h4V11.2h-4zM9.602 24h4v1.602h-4zm7.199 0h4v1.602h-4zM24 24h4v1.602h-4zm7.199 0h4v1.602h-4z"/></symbol><symbol viewBox="0 0 59.332 59" id="phases-2" xmlns="http://www.w3.org/2000/svg"><path d="M16.457 14.028c3.992.894 8.09 1.343 12.18 1.343s8.187-.449 12.164-1.34a.799.799 0 00.637-.867c-.571-5.484-4.477-9.984-9.454-11.41V.801a.799.799 0 10-1.597 0v.613a11.88 11.88 0 00-1.754-.144c-.59 0-1.172.058-1.746.144V.801A.803.803 0 0026.086 0a.803.803 0 00-.801.801v.949c-4.973 1.43-8.879 5.93-9.453 11.414a.806.806 0 00.625.864zM25.285 3.43v2.476a.802.802 0 001.602 0V3.028a10.372 10.372 0 011.75-.157c.593 0 1.175.059 1.75.157v2.878a.799.799 0 101.597 0v-2.48c3.942 1.312 7.047 4.848 7.77 9.195a54.425 54.425 0 01-22.234 0c.722-4.347 3.824-7.879 7.765-9.191zm8.305 8.32a22.74 22.74 0 01-9.906 0 .8.8 0 01.347-1.562c3.024.675 6.196.675 9.211 0 .43-.094.86.175.953.609a.797.797 0 01-.605.953zm-18.293 5.895c.015-.52.062-2.102 1.195-2.532 1.121-.421 2.266.719 2.481.95a.803.803 0 01-.035 1.133.802.802 0 01-1.133-.04c-.219-.234-.551-.468-.731-.523-.054.105-.16.391-.179 1.059-.083 2.738 2.007 3.504 2.097 3.535.25.086.446.293.512.547l.035.125a.573.573 0 01.027.144c.61 7.293 6.375 9.653 9.071 9.653 2.695 0 8.457-2.36 9.07-9.653a.656.656 0 01.027-.148l.032-.125a.808.808 0 01.519-.547c.082-.027 2.172-.793 2.094-3.531-.02-.668-.125-.954-.18-1.059-.179.055-.511.289-.734.527a.805.805 0 01-1.129.032.797.797 0 01-.039-1.129c.219-.231 1.363-1.367 2.484-.95 1.133.43 1.18 2.012 1.196 2.532.082 2.761-1.539 4.297-2.711 4.894-.801 7.414-6.653 10.754-10.629 10.754-3.977 0-9.832-3.34-10.629-10.754-1.176-.597-2.793-2.133-2.711-4.894zm30.945 32.051H39.91c-1.59 0-4.547 0-4.547 4.652S38.32 59 39.91 59h6.332a4.659 4.659 0 004.653-4.652 4.656 4.656 0 00-4.653-4.652zm0 7.703l-6.336.004c-1.707 0-2.941 0-2.941-3.055 0-2.672.945-3.008 2.328-3.047v2.09c0 .441.359.797.801.797a.8.8 0 00.801-.797v-2.098l1.707.004v2.094a.799.799 0 001.597 0v-2.094h1.594v2.094a.799.799 0 001.598 0v-1.867a3.05 3.05 0 01-1.149 5.875zm-26.93-7.703H12.98a4.655 4.655 0 00-4.652 4.652A4.659 4.659 0 0012.98 59h6.332c1.59 0 4.547 0 4.547-4.652s-2.957-4.652-4.547-4.652zm0 7.703h-6.335a3.057 3.057 0 01-3.051-3.051c0-1.277.789-2.371 1.902-2.824v1.863c0 .441.36.801.801.801s.801-.36.801-.801v-2.09l1.593-.004v2.094a.8.8 0 101.598 0v-2.094h1.707v2.094c0 .441.36.801.801.801.441 0 .801-.36.801-.801v-2.09c1.382.043 2.328.375 2.328 3.047 0 3.055-1.235 3.055-2.946 3.055zm15.356-3.051a.802.802 0 01-.801.801h-8.062a.802.802 0 010-1.602h8.062c.442 0 .801.359.801.801zm-29.75-5.102a1.052 1.052 0 01-2.102 0 1.05 1.05 0 012.102 0zm53.617-8.875h-6.137a.799.799 0 00-.796.801v2.176h-9.411l1.864-7.883c1.621 1.574 2.883 3.508 3.605 5.621a.799.799 0 101.512-.515c-1.57-4.598-5.426-8.426-10.07-9.997l.035-.668a.799.799 0 00-.754-.839.806.806 0 00-.844.754l-.203 3.722-2.324-1.086a.794.794 0 00-1.063.383.801.801 0 00.383 1.063l3.398 1.593a.787.787 0 00.75-.035.799.799 0 00.387-.644l.141-2.571c.426.16.844.336 1.25.535l-1.75 7.247H18.41l-1.668-7.043c.528-.278 1.067-.52 1.625-.727l.137 2.559a.803.803 0 00.801.757.8.8 0 00.34-.078l3.394-1.593a.8.8 0 10-.68-1.446l-2.32 1.086-.203-3.722a.809.809 0 00-.844-.754.796.796 0 00-.754.839l.035.668c-1.007.344-1.98.797-2.902 1.34l-.031.02a16.38 16.38 0 00-2.332 1.66l-.012.012a16.419 16.419 0 00-3.672 4.453 14.981 14.981 0 00-1.125 2.512.803.803 0 00.758 1.058.804.804 0 00.758-.543c.262-.765.597-1.523 1.004-2.246a14.843 14.843 0 012.301-3.066l1.789 7.574H7.734v-2.176a.802.802 0 00-.8-.801H.801a.802.802 0 00-.801.801v16.152c0 .442.359.801.801.801h6.133c.441 0 .8-.359.8-.801V44.949h43.868v12.375c0 .442.355.801.796.801h6.137a.798.798 0 00.797-.801V41.172a.799.799 0 00-.797-.801zM6.133 56.524H4.898a1.042 1.042 0 00-1.031-.95c-.543 0-.976.418-1.031.95H1.602V41.973h1.234c.051.531.484.953 1.031.953s.981-.422 1.031-.953h1.235v14.551zm36.558-22.235l-2.144 9.059h-1.192l2.352-9.746c.336.215.664.445.984.687zm-4.566 7.34l-.418 1.719H19.195l-.406-1.719h19.336zm-23.754-7.086c.301-.246.609-.48.93-.699l2.25 9.504h-1.098l-2.082-8.805zm43.363 21.981h-1.238a1.036 1.036 0 00-1.027-.95 1.04 1.04 0 00-1.031.95h-1.239V41.973h1.235c.05.531.488.953 1.031.953.547 0 .984-.422 1.031-.953h1.238v14.551zm-1.218-7.278a1.052 1.052 0 01-2.102 0 1.05 1.05 0 012.102 0zM20.02 16.879a.801.801 0 00-.801.801c0 2.195.469 3.848 1.386 4.91.805.93 1.918 1.398 3.305 1.398 1.922 0 3.891-.929 4.727-1.382.836.445 2.793 1.359 4.707 1.359 1.758 0 4.711-.816 4.711-6.285a.802.802 0 00-.801-.801H20.02zm13.324 5.484c-2.02 0-4.27-1.343-4.293-1.359a.807.807 0 00-.832.004c-.024.012-2.274 1.383-4.309 1.383-.914 0-1.601-.278-2.094-.848-.558-.648-.886-1.676-.972-3.066H36.43c-.254 3.886-2.364 3.886-3.086 3.886zm0 0"/></symbol><symbol viewBox="0 0 409.92 410.88" id="phases-3" xmlns="http://www.w3.org/2000/svg"><path d="M170.668 328h95.57a6.824 6.824 0 006.828-6.825 6.825 6.825 0 00-6.828-6.828h-95.57a6.825 6.825 0 00-6.828 6.828 6.825 6.825 0 006.828 6.825zM129.707 61.761a6.824 6.824 0 006.824 6.825h238.934c11.293 0 20.48 9.191 20.48 20.48v163.84a6.825 6.825 0 006.828 6.828 6.825 6.825 0 006.825-6.828V89.066c0-18.82-15.309-34.133-34.133-34.133h-238.93a6.825 6.825 0 00-6.828 6.828zm40.961 225.278h68.266a6.824 6.824 0 006.824-6.824 6.825 6.825 0 00-6.824-6.829h-68.266a6.826 6.826 0 00-6.828 6.829 6.825 6.825 0 006.828 6.824zm0 0"/><path d="M238.934 396.265H122.879V89.066c0-18.82-15.313-34.133-34.133-34.133S54.613 70.246 54.613 89.066v232.106c0 11.293-9.187 20.48-20.48 20.48-11.293 0-20.481-9.187-20.481-20.48v-307.2h273.067v20.481a6.825 6.825 0 006.828 6.828 6.825 6.825 0 006.824-6.828V7.148A6.825 6.825 0 00293.547.32H6.828A6.825 6.825 0 000 7.148v314.024c0 18.82 15.312 34.136 34.133 34.136 18.82 0 34.133-15.312 34.133-34.136V89.066c0-11.289 9.191-20.48 20.48-20.48 11.293 0 20.481 9.191 20.481 20.48v252.586H75.094a6.826 6.826 0 100 13.652h34.133v47.789a6.824 6.824 0 006.828 6.825h122.879a6.827 6.827 0 100-13.653zm0 0"/><defs><path id="ia" d="M0 0h409.92v410.88H0z"/></defs><clipPath id="ib"><use xlink:href="#ia" overflow="visible"/></clipPath><path d="M314.027 280.215c0-3.77-3.05-6.829-6.828-6.829h-40.961a6.825 6.825 0 00-6.824 6.829 6.824 6.824 0 006.824 6.824h40.961a6.824 6.824 0 006.828-6.824zm87.442 1.304l-13.653-13.656c-10.5-10.492-26.472-10.473-36.961 0l-89.441 89.445a6.801 6.801 0 00-2 4.825v40.96a6.825 6.825 0 006.824 6.829h40.961a6.809 6.809 0 004.828-2l89.442-89.446c10.875-10.875 10.875-26.078 0-36.957zm-59.438 14.485l10.817 10.82-59.301 59.309-10.828-10.825 59.312-59.304zm-68.965 100.261v-31.304l31.309 31.304h-31.309zm40.961-9.652l-10.828-10.828 59.313-59.301 10.824 10.82-59.309 59.309zm77.789-77.789l-8.828 8.828-31.304-31.309 8.824-8.828c5.406-5.398 12.234-5.414 17.656 0l13.652 13.657c5.524 5.527 5.524 12.128 0 17.652zm0 0" clip-path="url(#ib)"/><path d="M327.68 239.254V180.64l2 2a6.805 6.805 0 004.828 2 6.803 6.803 0 004.824-2 6.82 6.82 0 000-9.652l-13.644-13.648-.016-.012-61.434-61.434a6.82 6.82 0 00-9.652 0l-61.43 61.434-.015.012-13.645 13.648a6.813 6.813 0 000 9.652 6.82 6.82 0 009.652 0l2-2v58.614a6.825 6.825 0 006.825 6.828h47.789a6.825 6.825 0 006.824-6.828v-34.133h13.652v34.133a6.828 6.828 0 006.828 6.828h47.786a6.825 6.825 0 006.828-6.828zm-13.653-6.829h-34.132v-34.132a6.828 6.828 0 00-6.829-6.828h-27.304a6.824 6.824 0 00-6.828 6.828v34.132h-34.133v-65.441l54.613-54.613 54.613 54.613v65.441zm0 0"/></symbol><symbol viewBox="0 0 237.262 236.191" id="phases-4" xmlns="http://www.w3.org/2000/svg"><path d="M225.832 60.953h-34.988c.429-1.195.703-2.469.703-3.808 0-6.301-5.129-11.43-11.43-11.43h-3.808V11.43c0-6.301-5.129-11.43-11.43-11.43H73.453c-6.301 0-11.43 5.129-11.43 11.43v30.476a3.814 3.814 0 01-3.812 3.809H23.93v-7.621c0-6.301-5.129-11.426-11.43-11.426H1.07v45.711H12.5c6.301 0 11.43-5.125 11.43-11.426v-7.621h34.285c6.301 0 11.426-5.129 11.426-11.43V11.43a3.812 3.812 0 013.812-3.809h91.426a3.812 3.812 0 013.812 3.809v34.285h-3.812c-6.301 0-11.426 5.129-11.426 11.43 0 1.339.274 2.613.699 3.808h-34.988c-6.301 0-11.426 5.129-11.426 11.43H34.02L10.211 91.43l23.809 19.047h73.718v7.621H50.836l-32.359-4.047L0 137.145l18.477 23.093 32.359-4.047h56.902v11.43H1.07v57.141h134.774c10.433 7.195 23.054 11.429 36.656 11.429 35.711 0 64.762-29.05 64.762-64.761V72.379c0-6.301-5.129-11.426-11.43-11.426zm-209.523 0a3.814 3.814 0 01-3.809 3.809H8.691V34.285H12.5a3.814 3.814 0 013.809 3.809v22.859zm15.238 37.785l-9.141-7.308 9.141-7.317v14.625zm76.191 4.117H39.164v-7.617h68.574v7.617zm0-15.234H39.164V80h68.574v7.621zm-60.953 61.422l-25.023 3.105-8.953-11.195h4.203c1.574 4.422 5.765 7.617 10.726 7.617 6.301 0 11.43-5.125 11.43-11.425 0-6.301-5.129-11.43-11.43-11.43-4.961 0-9.152 3.195-10.73 7.617h-4.199l8.953-11.191 25.023 3.129v23.773zM23.93 137.145a3.812 3.812 0 013.808-3.813 3.815 3.815 0 013.809 3.813 3.813 3.813 0 01-3.809 3.808 3.81 3.81 0 01-3.808-3.808zm83.808 11.425H69.641v-22.855h-7.618v22.855h-7.621v-22.882l53.336.027v22.855zm57.141-95.238h15.238a3.815 3.815 0 013.813 3.813 3.814 3.814 0 01-3.813 3.808h-15.238a3.813 3.813 0 01-3.809-3.808 3.815 3.815 0 013.809-3.813zM8.691 217.145v-41.907h7.618v11.43h7.621v-11.43h7.617v15.239h7.621v-15.239h7.617v11.43h7.621v-11.43h7.617v15.239h7.622v-15.239h7.617v11.43h7.621v-11.43H92.5v15.239h7.621v-15.239h7.813c.957 16.305 7.894 31.028 18.742 41.907H8.691zm220.95-45.715c0 31.508-25.633 57.14-57.141 57.14s-57.145-25.632-57.145-57.14v-57.145h114.286v57.145zm0-64.762h-53.332V76.191h-7.618v30.477h-53.336V72.379a3.814 3.814 0 013.809-3.809h106.668a3.811 3.811 0 013.809 3.809v34.289zm0 0"/></symbol><symbol viewBox="-49 235.063 512 323.875" id="phases-5" xmlns="http://www.w3.org/2000/svg"><path d="M427.158 372.363l-13.259-53.035c3.625-.77 6.345-3.986 6.345-7.839v-8.551c0-18.566-15.105-33.67-33.67-33.67h-60.392V251.63c0-9.136-7.432-16.568-16.568-16.568H1.772c-9.136 0-16.568 7.432-16.568 16.568V397a8.017 8.017 0 0016.034 0V251.63c0-.295.239-.534.534-.534h307.841c.295 0 .534.239.534.534v145.372a8.017 8.017 0 0016.034 0v-9.088h94.569l.021.002.022-.001c11.637.008 21.518 7.646 24.912 18.171h-24.928a8.017 8.017 0 00-8.017 8.017v17.102c0 13.851 11.268 25.119 25.119 25.119h9.086v35.273h-20.962c-6.886-19.883-25.787-34.205-47.982-34.205s-41.097 14.322-47.982 34.205h-3.86v-60.392a8.017 8.017 0 00-16.034 0v60.391H143.817c-6.886-19.882-25.787-34.205-47.982-34.205s-41.097 14.322-47.982 34.205H1.772a.534.534 0 01-.534-.534v-17.637h34.739a8.017 8.017 0 000-16.034h-76.96a8.017 8.017 0 000 16.034h26.188v17.637c0 9.136 7.432 16.568 16.568 16.568h43.304c-.002.178-.014.355-.014.534 0 27.996 22.777 50.772 50.772 50.772s50.772-22.776 50.772-50.772c0-.18-.012-.356-.014-.534h180.67c-.002.178-.014.355-.014.534 0 27.996 22.777 50.772 50.772 50.772 27.995 0 50.772-22.776 50.772-50.772 0-.18-.012-.356-.014-.534h26.203a8.017 8.017 0 008.017-8.017v-85.512c.001-21.111-15.576-38.653-35.841-41.738zm-100.976-52.858h71.235l13.094 52.376h-84.329v-52.376zm60.392-34.204c9.725 0 17.637 7.912 17.637 17.637v.534h-78.029v-18.171h60.392zM95.835 542.904c-19.155 0-34.739-15.583-34.739-34.739s15.584-34.739 34.739-34.739 34.739 15.583 34.739 34.739-15.584 34.739-34.739 34.739zm282.188 0c-19.155 0-34.739-15.583-34.739-34.739s15.584-34.739 34.739-34.739c19.155 0 34.739 15.583 34.739 34.739s-15.584 34.739-34.739 34.739zm59.858-102.614c-5.01 0-9.086-4.076-9.086-9.086v-9.086h18.171v18.171h-9.085z"/><path d="M95.835 491.597c-9.136 0-16.568 7.432-16.568 16.568s7.432 16.568 16.568 16.568 16.568-7.432 16.568-16.568-7.432-16.568-16.568-16.568zm282.188 0c-9.136 0-16.568 7.432-16.568 16.568s7.432 16.568 16.568 16.568 16.568-7.432 16.568-16.568-7.432-16.568-16.568-16.568zm-221.795-26.188a8.017 8.017 0 008.017 8.017H283.96a8.017 8.017 0 000-16.034H164.244a8.017 8.017 0 00-8.016 8.017zm-180.109-26.188H78.733a8.017 8.017 0 000-16.034H-23.881a8.017 8.017 0 000 16.034zm242.315-124.85l-71.292 71.291-37.087-37.087a8.016 8.016 0 00-11.337 0 8.016 8.016 0 000 11.337l42.756 42.756c1.565 1.566 3.617 2.348 5.668 2.348s4.103-.782 5.668-2.348l76.96-76.96a8.016 8.016 0 10-11.336-11.337z"/></symbol><symbol viewBox="-49 141 512 512" id="phases-6" xmlns="http://www.w3.org/2000/svg"><path d="M57.602 583.474h15.192v16.909H57.602z"/><path d="M384.981 464.968c23.167-12.796 38.898-37.47 38.898-65.757 0-31.705-19.765-58.862-47.613-69.849.464-4.874.787-9.701.787-14.63 0-2.142-.029-4.297-.085-6.406l-15.188.405c.053 1.974.08 3.994.08 6.001 0 2.717-.049 5.51-.147 8.319l-.224 2.18a75.22 75.22 0 00-12.684-1.093c-24.212 0-45.769 11.532-59.506 29.379-6.496-36.719-37.021-65.231-74.701-68.643v-7.385h-15.194v7.385c-37.681 3.412-68.205 31.925-74.701 68.643-13.737-17.847-35.295-29.379-59.506-29.379a75.43 75.43 0 00-8.84.538c-.077-1.733-.144-3.288-.144-3.648a192.14 192.14 0 01.379-12.065l-15.163-.954c-.418 6.651-.078 13.311.121 19.967-29.841 9.932-51.427 38.102-51.427 71.236 0 28.287 15.731 52.961 38.898 65.757C-16.271 480.134-49 522.958-49 573.287v79.633h512v-79.633c0-50.329-32.728-93.153-78.019-108.319zm-36.177-5.876c-29.13 0-53.455-20.911-58.784-48.508 17.268-5.953 29.568-14.117 38.038-21.634 11.018 7.814 36.693 22.042 79.057 23.83-6.165 26.5-29.959 46.312-58.311 46.312zm25.921 18.642l-25.921 29.715-25.921-29.715c8.266-2.244 16.954-3.45 25.921-3.45s17.655 1.205 25.921 3.45zm-25.921-138.405c32.49 0 59 26.014 59.841 58.306-36.857-1.409-59.736-13.122-69.98-19.887 3.738-4.781 5.421-8.131 5.614-8.53l-13.67-6.631c-.106.218-10.051 20.033-41.503 32.171 2.289-30.944 28.179-55.429 59.698-55.429zm-36.175 125.639a113.721 113.721 0 00-17.089 7.333c-14.052-13.546-31.192-23.909-50.247-29.913a84.151 84.151 0 0030.31-26.583c4.793 21.155 18.53 38.946 37.026 49.163zM207 436.519c-33.565 0-61.542-24.307-67.301-56.239 20.126-6.814 34.284-16.307 43.875-24.944 12.019 8.679 41.254 25.345 90.298 27.162-6.628 30.834-34.087 54.021-66.872 54.021zm30.925 19.517l-30.924 35.451-30.924-35.451a112.165 112.165 0 0130.924-4.325c10.72 0 21.095 1.51 30.924 4.325zM207 299.705c37.46 0 67.969 30.27 68.387 67.634-43.398-1.449-69.893-15.522-81.197-23.177 4.592-5.729 6.623-9.786 6.848-10.251l-13.65-6.671c-.518 1.038-12.249 23.713-48.701 37.285 1.873-36.059 31.797-64.82 68.313-64.82zm-38.292 142.683c-19.056 6.004-36.195 16.367-50.247 29.913a113.516 113.516 0 00-17.089-7.333c18.496-10.217 32.232-28.008 37.026-49.162a84.157 84.157 0 0030.31 26.582zM65.196 339.329c32.49 0 59 26.014 59.84 58.306-36.857-1.409-59.735-13.122-69.98-19.887 3.738-4.781 5.421-8.131 5.614-8.531l-13.647-6.676c-.451.897-10.493 20.259-41.525 32.221 2.286-30.946 28.178-55.433 59.698-55.433zM6.412 410.583c17.268-5.953 29.568-14.117 38.038-21.634 11.018 7.815 36.693 22.042 79.057 23.83-6.165 26.501-29.96 46.312-58.311 46.312-29.13.001-53.455-20.911-58.784-48.508zm84.704 67.151l-25.921 29.715-25.921-29.715c8.266-2.244 16.954-3.45 25.921-3.45s17.656 1.205 25.921 3.45zM79.334 637.727H13.441v-61.054H-1.751v61.054h-32.056v-64.439c0-39.882 23.708-74.328 57.768-89.997l33.638 38.562v47.297h15.192v-47.297l33.638-38.562c.456.21.912.421 1.364.637-17.787 21.943-28.461 49.875-28.461 80.257l.002 73.542zm240.14 0h-38.026v-69.729h-15.192v69.729h-118.51v-69.729h-15.192v69.729H94.527v-73.542c0-45.563 27.234-84.884 66.277-102.543l38.599 44.249v53.634h15.192v-53.634l38.599-44.249c39.044 17.659 66.278 56.98 66.278 102.543v73.542zm128.334 0h-32.056v-61.054H400.56v61.054h-65.892v-73.542c0-30.382-10.674-58.313-28.461-80.257.453-.216.908-.428 1.365-.637l33.638 38.562v47.297h15.192v-47.297l33.638-38.562c34.06 15.669 57.768 50.114 57.768 89.997v64.439z"/><path d="M341.205 583.474h15.192v16.909h-15.192zm-141.801-7.812h15.192v19.046h-15.192zm183.927-407.834h15.192v16.909h-15.192zm42.528 78.348h15.192v16.909h-15.192zM20.13 176.282h15.192v16.909H20.13zm-56.302 82.083h15.192v16.909h-15.192zm96.829 21.701l-14.834-3.282a202.866 202.866 0 00-2.802 15.533l15.046 2.112a186.796 186.796 0 012.59-14.363zm8.575-27.804l-14.092-5.678a187.894 187.894 0 00-5.287 14.919l14.521 4.47a173.38 173.38 0 014.858-13.711zm52.784-67.436l-8.825-12.366a168.335 168.335 0 00-12.494 9.84l9.956 11.477a152.993 152.993 0 0111.363-8.951zm-21.818 18.934l-11.007-10.473a165.767 165.767 0 00-10.402 12.043l11.965 9.364a150.234 150.234 0 019.444-10.934zm-17.78 22.729l-12.822-8.151a169.568 169.568 0 00-7.883 13.808l13.531 6.909a154.334 154.334 0 017.174-12.566zm64.606-56.172l-6.357-13.798a169.709 169.709 0 00-14.113 7.324l7.623 13.141a154.547 154.547 0 0112.847-6.667zm27.278-9.57L170.65 146a168.862 168.862 0 00-15.243 4.551l5.03 14.336a152.772 152.772 0 0113.865-4.14zm181.333 104.292l14.633-4.09a154.187 154.187 0 00-5.083-15.147l-14.127 5.59a138.562 138.562 0 014.577 13.647zm-10.926-26.648l13.513-6.944a167.549 167.549 0 00-7.94-13.79l-12.79 8.201a152.184 152.184 0 017.217 12.533zm-83.02-88.768a168.94 168.94 0 00-15.261-4.488l-3.59 14.764a153.442 153.442 0 0113.879 4.082l4.972-14.358zm99.187 144.489l15.12-1.492a195.118 195.118 0 00-2.178-15.657l-14.949 2.716a179.345 179.345 0 012.007 14.433zm-69.742-131.809a168.143 168.143 0 00-14.142-7.286l-6.31 13.821a152.938 152.938 0 0112.86 6.625l7.592-13.16zm16.631 29.478l9.977-11.459a165.003 165.003 0 00-12.503-9.859l-8.821 12.37a149.526 149.526 0 0111.347 8.948zm32.46 12.458a168.325 168.325 0 00-10.392-12.041l-11.018 10.46a153.388 153.388 0 019.452 10.954l11.958-9.373zm-140.821-17.268h15.192v15.086h-15.192zm0 30.173h15.192v15.086h-15.192zm0 30.173h15.192v15.086h-15.192zm-10.02-89.392c1.893-.237 6.156-.841 10.02-1.115v15.075h15.192v-15.482c.9.019 1.811.047 2.728.083l-.001.015c4.14.196 5.948.407 10.081.948l.167.027 2.405-15.003c-19.542-2.529-34.711-1.204-44.895.701l2.225 15.029c.691-.099 1.384-.186 2.078-.278z"/></symbol><symbol viewBox="0 0 477.156 477.156" id="phone" xmlns="http://www.w3.org/2000/svg"><path d="M475.009 380.316l-2.375-7.156c-5.625-16.719-24.062-34.156-41-38.75l-62.688-17.125c-17-4.625-41.25 1.594-53.688 14.031l-22.688 22.688c-82.453-22.28-147.109-86.938-169.359-169.375L145.9 161.94c12.438-12.438 18.656-36.656 14.031-53.656l-17.094-62.719c-4.625-16.969-22.094-35.406-38.781-40.969L96.9 2.19c-16.719-5.563-40.563.063-53 12.5L9.962 48.659C3.899 54.69.024 71.94.024 72.003c-1.187 107.75 41.063 211.562 117.281 287.781 76.031 76.031 179.454 118.219 286.891 117.313.562 0 18.312-3.813 24.375-9.845l33.938-33.938c12.437-12.436 18.062-36.279 12.5-52.998z"/></symbol><symbol viewBox="0 0 48 48" id="sketch" xmlns="http://www.w3.org/2000/svg"><path d="M48 29.6V.8c0-.48-.32-.8-.8-.8H.8C.32 0 0 .32 0 .8v37.6c0 .48.32.8.8.8h8v-1.6H1.6v-36h44.8v27.2h-8c-.48 0-.8.32-.8.8v8H20v1.6h18.4c.24 0 .4-.08.56-.24l8.8-8.8c.08-.08.08-.16.16-.24v-.08c.08-.08.08-.16.08-.24zm-8.8.8h6.08l-6.08 6.08V30.4zm0 0"/><path d="M15.12 7.76a.768.768 0 00-.72-.56c-.32 0-.64.24-.72.56l-2.32 6.96c-.08.16-.16.32-.16.48v32c0 .48.32.8.8.8h4.8c.48 0 .8-.32.8-.8v-32c0-.16-.08-.4-.16-.48l-2.32-6.96zM12.8 16h.8v24.8h-.8V16zm2.4 0h.8v24.8h-.8V16zm-.8-5.44l1.28 3.84h-2.56l1.28-3.84zM16 46.4h-3.2v-4H16v4zM28 4.8c-4 0-7.2 3.2-7.2 7.2v1.6h1.6V12c0-3.12 2.48-5.6 5.6-5.6 3.12 0 5.6 2.48 5.6 5.6v1.6h1.6V12c0-4-3.2-7.2-7.2-7.2zm0 0"/><path d="M43.2 12.8v-1.6h-1.6v1.6c0 3.12-2.48 5.6-5.6 5.6-3.12 0-5.6-2.48-5.6-5.6v-1.6h-1.6v1.6c0 4 3.2 7.2 7.2 7.2s7.2-3.2 7.2-7.2zM20 26.4v8c0 .48.32.8.8.8h8c.48 0 .8-.32.8-.8v-8c0-.48-.32-.8-.8-.8h-8c-.48 0-.8.32-.8.8zm1.6.8H28v6.4h-6.4v-6.4zm0 0"/><path d="M31.2 28v1.6h1.6c.48 0 .8-.32.8-.8v-6.4c0-.48-.32-.8-.8-.8h-6.4c-.48 0-.8.32-.8.8V24h1.6v-.8H32V28h-.8zM4.8 4h1.6v1.6H4.8zM8 4h1.6v1.6H8zm3.2 0h1.6v1.6h-1.6zM8 7.2h1.6v1.6H8zm-3.2 0h1.6v1.6H4.8zm0 3.2h1.6V12H4.8zm0 3.2h1.6v1.6H4.8zm0 3.2h1.6v1.6H4.8zm0 3.2h1.6v1.6H4.8zm0 3.2h1.6v1.6H4.8zm0 3.2h1.6V28H4.8zm0 3.2h1.6v1.6H4.8zm0 3.2h1.6v1.6H4.8z"/></symbol><symbol viewBox="0 0 257.6 353.6" id="text" xmlns="http://www.w3.org/2000/svg"><path d="M255.93 294.48c.11-.14.22-.28.32-.43.04-.05.07-.11.1-.16.11-.17.21-.34.3-.51.02-.04.04-.07.05-.11.1-.2.2-.39.28-.59.01-.03.02-.05.03-.07.09-.22.17-.44.24-.66.01-.03.01-.06.02-.08.07-.22.13-.45.17-.67.02-.07.02-.14.03-.2.04-.19.07-.38.09-.58.03-.26.04-.53.04-.8V8c0-4.42-3.58-8-8-8H8C3.58 0 0 3.58 0 8v337.6c0 4.42 3.58 8 8 8h185.6c.27 0 .53-.02.8-.04.2-.02.39-.05.58-.09l.2-.03c.23-.04.45-.1.68-.17.02-.01.05-.01.08-.02.23-.07.45-.15.66-.24.02-.01.05-.02.07-.03.2-.09.4-.18.59-.28.04-.02.08-.04.11-.05.18-.09.35-.2.52-.31.05-.03.11-.06.16-.1.15-.1.29-.21.44-.32.06-.05.13-.09.2-.15.14-.12.29-.25.42-.38.05-.05.1-.09.16-.14l56-56c.05-.05.09-.11.14-.16.13-.14.26-.28.38-.42.04-.05.09-.12.14-.19zM16 16h225.6v265.6h-48c-4.42 0-8 3.58-8 8v48H16V16zm214.28 281.6l-28.68 28.68V297.6h28.68zm0 0"/><path d="M92.91 182.03c-3.48-2.71-8.51-2.09-11.22 1.4l-20.64 26.54-8.07-6.41c-3.46-2.75-8.49-2.17-11.24 1.29s-2.17 8.49 1.29 11.24l14.4 11.43a7.998 7.998 0 004.97 1.74c.32 0 .64-.02.95-.06a7.958 7.958 0 005.36-3.03l25.6-32.91a7.994 7.994 0 00-1.4-11.23zm0-56c-3.48-2.71-8.51-2.08-11.22 1.4l-20.64 26.54-8.07-6.41c-3.46-2.75-8.49-2.17-11.24 1.29s-2.17 8.49 1.29 11.24l14.4 11.43a7.998 7.998 0 004.97 1.74c.32 0 .64-.02.95-.06a7.958 7.958 0 005.36-3.03l25.6-32.91a7.994 7.994 0 00-1.4-11.23zm0-56c-3.48-2.71-8.51-2.09-11.22 1.4L61.05 97.97l-8.07-6.41c-3.46-2.75-8.49-2.17-11.24 1.29s-2.17 8.49 1.29 11.24l14.4 11.43a7.998 7.998 0 004.97 1.74c.32 0 .64-.02.95-.06a7.958 7.958 0 005.36-3.03l25.6-32.91a7.994 7.994 0 00-1.4-11.23zM112 100.8h89.6c4.42 0 8-3.58 8-8s-3.58-8-8-8H112c-4.42 0-8 3.58-8 8s3.58 8 8 8zm0 56h89.6c4.42 0 8-3.58 8-8s-3.58-8-8-8H112c-4.42 0-8 3.58-8 8s3.58 8 8 8zm89.6 56c4.42 0 8-3.58 8-8s-3.58-8-8-8H112c-4.42 0-8 3.58-8 8s3.58 8 8 8h89.6zm0 0"/></symbol><symbol viewBox="-49 141 512 512" id="visibility" xmlns="http://www.w3.org/2000/svg"><path d="M438.463 373.092c-4.15-5.321-11.825-6.267-17.147-2.12-5.32 4.15-6.269 11.826-2.12 17.147a14.425 14.425 0 010 17.763c-29.884 38.315-68.55 67.106-112.08 84.513 22.879-24.497 36.888-57.346 36.888-93.395 0-35.907-13.892-68.638-36.576-93.083 25.153 10.114 48.798 24.014 69.966 41.37a270.3 270.3 0 017.79 6.638c5.052 4.473 12.772 4.003 17.245-1.048s4.003-12.773-1.048-17.245a290.95 290.95 0 00-8.496-7.239c-52.22-42.815-118.237-66.395-185.886-66.395-91.043 0-175.408 41.221-231.463 113.094a38.828 38.828 0 000 47.818c56.055 71.873 140.42 113.094 231.463 113.094 91.041 0 175.407-41.221 231.465-113.094a38.83 38.83 0 00-.001-47.818zM319.572 397c0 62.025-50.416 112.487-112.424 112.567l-.148.001-.148-.001C144.845 509.487 94.429 459.025 94.429 397s50.416-112.487 112.424-112.567l.148-.001.114.001c62.021.061 112.457 50.53 112.457 112.567zm-324.769 8.882a14.425 14.425 0 010-17.763c29.877-38.308 68.535-67.095 112.057-84.504C84.005 328.1 69.995 360.936 69.995 397c0 36.051 14.01 68.9 36.865 93.386-43.522-17.409-82.18-46.196-112.057-84.504z"/><path d="M155.16 397c0 28.587 23.253 51.84 51.84 51.84s51.84-23.253 51.84-51.84-23.253-51.84-51.84-51.84-51.84 23.253-51.84 51.84zm79.246 0c0 15.108-12.298 27.406-27.406 27.406-15.108 0-27.406-12.298-27.406-27.406s12.298-27.406 27.406-27.406c15.108 0 27.406 12.298 27.406 27.406zM207 211.247c6.748 0 12.217-5.469 12.217-12.217v-45.813c0-6.748-5.469-12.217-12.217-12.217s-12.217 5.469-12.217 12.217v45.813c0 6.748 5.469 12.217 12.217 12.217zm0 371.506c-6.748 0-12.217 5.469-12.217 12.217v45.813c0 6.748 5.469 12.217 12.217 12.217s12.217-5.469 12.217-12.217V594.97c0-6.748-5.471-12.217-12.217-12.217zm149.584-323.121c3.126 0 6.252-1.193 8.639-3.578l22.797-22.795c4.771-4.771 4.771-12.506 0-17.279-4.771-4.77-12.505-4.77-17.279 0l-22.795 22.795c-4.771 4.771-4.771 12.506 0 17.279a12.18 12.18 0 008.638 3.578zM48.777 537.946L25.98 560.741c-4.771 4.771-4.771 12.506 0 17.279a12.183 12.183 0 008.639 3.578c3.126 0 6.252-1.193 8.639-3.578l22.797-22.795c4.771-4.771 4.771-12.506 0-17.279-4.771-4.769-12.505-4.77-17.278 0zm0-281.892a12.181 12.181 0 008.639 3.578c3.126 0 6.254-1.193 8.639-3.578 4.771-4.773 4.77-12.507 0-17.279L43.258 215.98c-4.771-4.77-12.506-4.77-17.277 0-4.771 4.773-4.77 12.507 0 17.279l22.796 22.795zm316.446 281.892c-4.773-4.77-12.506-4.77-17.279 0-4.771 4.773-4.771 12.507 0 17.279l22.797 22.795c2.386 2.385 5.513 3.578 8.639 3.578s6.252-1.193 8.639-3.578c4.771-4.773 4.771-12.507 0-17.279l-22.796-22.795z"/></symbol></svg>