<?xml version="1.0" encoding="iso-8859-1"?>
<!-- Generator: Adobe Illustrator 24.0.2, SVG Export Plug-In . SVG Version: 6.00 Build 0)  -->
<svg version="1.1" id="Layer_1" xmlns="http://www.w3.org/2000/svg" xmlns:xlink="http://www.w3.org/1999/xlink" x="0px" y="0px"
	 viewBox="-49 141 512 512" style="enable-background:new -49 141 512 512;" xml:space="preserve">
<path d="M423.944,261.825c-24.661-39.431-59.539-71.458-100.866-92.616c-3.686-1.888-8.202-0.429-10.089,3.256
	c-1.887,3.686-0.429,8.202,3.256,10.089c81.097,41.519,131.475,123.734,131.475,214.56c0,132.812-108.051,240.863-240.863,240.863
	S-34.008,529.928-34.008,397.115c0-167.698,168.668-285.15,326.203-225.249c3.864,1.466,8.199-0.472,9.671-4.344
	c1.471-3.869-0.474-8.199-4.344-9.671C130.562,94.372-49,218.46-49,397.115c0,141.079,114.776,255.856,255.856,255.856
	C407.047,652.971,530.184,431.707,423.944,261.825z"/>
<path d="M152.234,488.456c3.602,2.038,8.177,0.772,10.217-2.832l33.504-59.199c20.191,6.991,41.133-8.144,41.133-29.309
	c0-14.516-10.028-26.731-23.519-30.092V260.947c0-4.141-3.355-7.496-7.496-7.496c-4.141,0-7.496,3.355-7.496,7.496v106.076
	c-22.846,5.693-31.287,33.904-15.204,51.193l-33.97,60.024C147.363,481.843,148.631,486.417,152.234,488.456z M206.073,381.093
	c8.836,0,16.023,7.186,16.023,16.021s-7.187,16.021-16.023,16.021c-8.835,0-16.021-7.186-16.021-16.021
	C190.052,388.281,197.238,381.093,206.073,381.093z"/>
<path d="M169.15,190.283C70.21,208.218-3.217,294.806-3.217,397.039c0,116.063,94.088,210.15,210.15,210.15
	c47.122,0,90.622-15.51,125.674-41.705c41.407-31.004,71.035-76.906,80.893-129.681c0.097-0.52,0.205-1.033,0.298-1.554
	c0.034-0.19,0.061-0.383,0.096-0.573c2.09-11.886,3.186-24.114,3.188-36.599C417.057,266.348,298.207,166.716,169.15,190.283z
	 M355.008,493.772l15.849,9.15c-16.171,24.978-37.885,46.045-63.392,61.447l-8.438-14.615c-2.071-3.585-6.656-4.813-10.24-2.744
	c-3.585,2.07-4.814,6.655-2.744,10.24l8.294,14.365c-24.448,12.307-51.817,19.621-80.768,20.605v-14.479
	c0-4.141-3.355-7.496-7.496-7.496c-4.141,0-7.496,3.355-7.496,7.496v14.42c-31.293-1.313-60.702-10.024-86.525-24.43l6.052-10.48
	c2.07-3.585,0.842-8.17-2.744-10.24c-3.584-2.069-8.171-0.842-10.24,2.744l-5.875,10.175
	c-23.815-15.793-43.983-36.661-58.943-61.056l8.837-5.101c3.585-2.07,4.814-6.655,2.744-10.24c-2.069-3.585-6.656-4.814-10.24-2.744
	l-8.687,5.015c-12.604-24.615-20.12-52.243-21.185-81.488h9.381c4.141,0,7.496-3.355,7.496-7.496s-3.355-7.496-7.496-7.496h-9.358
	c1.152-29.207,8.741-56.788,21.401-81.352l8.45,4.88c3.583,2.068,8.17,0.844,10.24-2.744c2.07-3.585,0.842-8.17-2.744-10.24
	l-8.565-4.945c14.984-24.293,35.139-45.066,58.92-60.783l5.627,9.746c1.389,2.405,3.908,3.749,6.499,3.749
	c5.731,0,9.376-6.239,6.485-11.245l-5.793-10.034c25.759-14.319,55.076-22.975,86.265-24.284V215.9c0,4.141,3.355,7.496,7.496,7.496
	s7.496-3.355,7.496-7.496v-13.89c28.846,0.98,56.121,8.246,80.502,20.471l-8.03,13.905c-2.891,5.005,0.75,11.246,6.485,11.246
	c2.591,0,5.109-1.344,6.499-3.748l8.186-14.174c25.47,15.325,47.17,36.296,63.365,61.169l-15.567,8.986
	c-3.586,2.069-4.815,6.654-2.745,10.239c2.068,3.585,6.653,4.815,10.239,2.745l15.772-9.103
	c14.006,25.61,22.428,54.686,23.645,85.582c-0.539-0.006-18.389-0.006-18.924-0.006c-4.14,0-7.497,3.353-7.497,7.495
	c0,4.141,3.355,7.497,7.495,7.497l18.845,0.002c0.038,0,0.067-0.005,0.104-0.005c-1.127,30.934-9.472,60.061-23.419,85.725
	l-16.019-9.248c-3.586-2.069-8.171-0.842-10.24,2.744C350.195,487.117,351.423,491.702,355.008,493.772z"/>
</svg>
