<?xml version="1.0" encoding="utf-8"?>
<!-- Generator: Adobe Illustrator 24.0.2, SVG Export Plug-In . SVG Version: 6.00 Build 0)  -->
<svg version="1.1" id="Слой_1" xmlns="http://www.w3.org/2000/svg" xmlns:xlink="http://www.w3.org/1999/xlink" x="0px" y="0px"
	 viewBox="0 0 236.19 236.19" style="enable-background:new 0 0 236.19 236.19;" xml:space="preserve">
<g>
	<path d="M34.28,72.38c0,2.11-1.7,3.81-3.81,3.81c-2.11,0-3.81-1.71-3.81-3.81c0-2.1,1.7-3.81,3.81-3.81
		C32.58,68.57,34.28,70.28,34.28,72.38L34.28,72.38z M34.28,72.38"/>
	<path d="M49.52,72.38c0,2.11-1.7,3.81-3.81,3.81c-2.11,0-3.81-1.71-3.81-3.81c0-2.1,1.7-3.81,3.81-3.81
		C47.82,68.57,49.52,70.28,49.52,72.38L49.52,72.38z M49.52,72.38"/>
	<path d="M64.76,72.38c0,2.11-1.7,3.81-3.81,3.81c-2.11,0-3.81-1.71-3.81-3.81c0-2.1,1.7-3.81,3.81-3.81
		C63.06,68.57,64.76,70.28,64.76,72.38L64.76,72.38z M64.76,72.38"/>
	<path d="M26.67,209.52H75.7l-49.03-46.15V209.52z M34.28,181.01l22.2,20.89h-22.2V181.01z M34.28,181.01"/>
	<path d="M236.19,22.85V0h-22.85v7.62h-76.19V0h-22.86v22.85h22.86v-7.62h12.88c-12.34,8.19-20.5,22.2-20.5,38.09H22.86
		c-6.3,0-11.43,5.13-11.43,11.43v47.72c-3.47-2.93-6.38-2.22-7.5-1.73C2.75,111.26,0,113,0,118.09v106.67
		c0,6.3,5.13,11.43,11.43,11.43h114.28c4.98,0,6.71-2.47,7.29-3.94c0.59-1.47,1.02-4.45-2.61-7.86l-3.64-3.43h98.01
		c6.3,0,11.43-5.13,11.43-11.43V64.76c0-6.3-5.13-11.43-11.43-11.43h-3.81c0-15.89-8.16-29.9-20.5-38.09h12.88v7.62H236.19z
		 M220.95,7.62h7.62v7.62h-7.62V7.62z M129.52,15.24h-7.62V7.62h7.62V15.24z M19.05,64.76c0-2.1,1.71-3.81,3.81-3.81h107.32
		c0,0.03,0.05,0.04,0.07,0.05c1.45,8.57,5.3,16.43,11.04,22.8H19.05V64.76z M11.43,228.57c-2.1,0-3.81-1.71-3.81-3.81v-3.81h7.62
		v-7.62H7.62v-7.62h7.62v-7.62H7.62v-7.62h7.62v-7.62H7.62v-7.62h7.62v-7.62H7.62V160h7.62v-7.62H7.62v-7.62h7.62v-7.62H7.62v-17.85
		l39.86,37.51l11.49,10.81l64.76,60.95H11.43z M34.28,133.93v-27.26h83.81V160H61.99L34.28,133.93z M228.57,209.53
		c0,2.1-1.71,3.8-3.81,3.8H118.66l-48.57-45.71h55.63V99.05H26.67v27.71l-7.62-7.17V91.43h131.15c0.73,0.48,1.42,1.02,2.18,1.46v4.3
		c-2.29,1.74-3.81,4.47-3.81,7.57c0,2.15,0.74,4.12,1.96,5.71c-1.22,1.6-1.96,3.57-1.96,5.72c0,5.25,4.27,9.52,9.52,9.52h34.28
		c5.25,0,9.53-4.27,9.53-9.52c0-2.15-0.75-4.12-1.96-5.71c1.21-1.6,1.96-3.56,1.96-5.71c0-3.1-1.51-5.83-3.81-7.57v-4.3
		c0.76-0.44,1.45-0.98,2.19-1.46h28.29V209.53z M158.1,114.28h34.28c1.05,0,1.9,0.85,1.9,1.91c0,1.05-0.85,1.9-1.9,1.9H158.1
		c-1.06,0-1.91-0.85-1.91-1.9S157.04,114.28,158.1,114.28L158.1,114.28z M156.19,104.76c0-1.05,0.85-1.91,1.91-1.91h34.28
		c1.05,0,1.9,0.86,1.9,1.91c0,1.05-0.85,1.9-1.9,1.9H158.1C157.04,106.67,156.19,105.81,156.19,104.76L156.19,104.76z M220.3,60.95
		h4.46c2.1,0,3.81,1.71,3.81,3.81v19.05h-19.38c5.62-6.23,9.42-13.9,10.94-22.27C220.2,61.36,220.27,61.18,220.3,60.95L220.3,60.95z
		 M213.34,53.33c0,14.35-7.97,27.34-20.79,33.9l-2.07,1.06v6.94h-11.43V68.03c6.56-1.7,11.43-7.62,11.43-14.7
		c0-8.4-6.83-15.24-15.24-15.24c-8.4,0-15.24,6.84-15.24,15.24c0,7.08,4.88,13,11.43,14.7v27.21H160V88.3l-2.07-1.06
		c-12.82-6.56-20.78-19.55-20.78-33.9c0-21,17.09-38.09,38.09-38.09C196.25,15.24,213.34,32.33,213.34,53.33L213.34,53.33z
		 M175.24,60.95c-4.2,0-7.62-3.42-7.62-7.62c0-4.2,3.41-7.62,7.62-7.62c4.2,0,7.62,3.41,7.62,7.62
		C182.86,57.54,179.44,60.95,175.24,60.95L175.24,60.95z M175.24,60.95"/>
	<rect x="133.34" y="137.14" width="87.62" height="7.62"/>
	<rect x="133.34" y="152.38" width="87.62" height="7.62"/>
	<rect x="133.34" y="167.62" width="87.62" height="7.62"/>
	<rect x="133.34" y="182.85" width="87.62" height="7.62"/>
</g>
</svg>
