<?xml version="1.0" encoding="iso-8859-1"?>
<!-- Generator: Adobe Illustrator 24.0.2, SVG Export Plug-In . SVG Version: 6.00 Build 0)  -->
<svg version="1.1" id="Layer_1" xmlns="http://www.w3.org/2000/svg" xmlns:xlink="http://www.w3.org/1999/xlink" x="0px" y="0px"
	 viewBox="-49 205 512 384" style="enable-background:new -49 205 512 384;" xml:space="preserve">
<g>
	<path d="M452.333,343.667c5.896,0,10.667-4.771,10.667-10.667v-85.333C463,224.135,443.865,205,420.333,205H-6.333
		C-29.865,205-49,224.135-49,247.667V333c0,5.896,4.771,10.667,10.667,10.667C-8.927,343.667,15,367.594,15,397
		s-23.927,53.333-53.333,53.333C-44.229,450.333-49,455.104-49,461v85.333C-49,569.865-29.865,589-6.333,589h426.667
		C443.865,589,463,569.865,463,546.333V461c0-5.896-4.771-10.667-10.667-10.667C422.927,450.333,399,426.406,399,397
		S422.927,343.667,452.333,343.667z M441.667,470.906v75.427c0,11.76-9.573,21.333-21.333,21.333H-6.333
		c-11.76,0-21.333-9.573-21.333-21.333v-75.427c36.135-5.188,64-36.354,64-73.906s-27.865-68.719-64-73.906v-75.427
		c0-11.76,9.573-21.333,21.333-21.333h426.667c11.76,0,21.333,9.573,21.333,21.333v75.427c-36.135,5.188-64,36.354-64,73.906
		S405.531,465.719,441.667,470.906z"/>
	<path d="M89.667,245C83.771,245,79,249.771,79,255.667v24c0,5.896,4.771,10.667,10.667,10.667s10.667-4.771,10.667-10.667v-24
		C100.333,249.771,95.563,245,89.667,245z"/>
	<path d="M89.667,333C83.771,333,79,337.771,79,343.667V365c0,5.896,4.771,10.667,10.667,10.667s10.667-4.771,10.667-10.667v-21.333
		C100.333,337.771,95.563,333,89.667,333z"/>
	<path d="M89.667,418.333C83.771,418.333,79,423.104,79,429v21.333C79,456.229,83.771,461,89.667,461s10.667-4.771,10.667-10.667
		V429C100.333,423.104,95.563,418.333,89.667,418.333z"/>
	<path d="M89.667,503.667c-5.896,0-10.667,4.771-10.667,10.667v21.333c0,5.896,4.771,10.667,10.667,10.667
		s10.667-4.771,10.667-10.667v-21.333C100.333,508.438,95.563,503.667,89.667,503.667z"/>
	<path d="M308.917,292.125c-4.938-3.271-11.531-1.948-14.792,2.958l-128,192c-3.271,4.906-1.948,11.521,2.958,14.792
		c1.823,1.208,3.875,1.792,5.906,1.792c3.448,0,6.833-1.667,8.885-4.75l128-192C315.146,302.01,313.823,295.396,308.917,292.125z"/>
	<path d="M228.333,343.667c0-29.406-19.135-53.333-42.667-53.333S143,314.26,143,343.667S162.135,397,185.667,397
		S228.333,373.073,228.333,343.667z M164.333,343.667c0-17.344,9.771-32,21.333-32s21.333,14.656,21.333,32s-9.771,32-21.333,32
		S164.333,361.01,164.333,343.667z"/>
	<path d="M292.333,397c-23.531,0-42.667,23.927-42.667,53.333s19.135,53.333,42.667,53.333S335,479.74,335,450.333
		S315.865,397,292.333,397z M292.333,482.333c-11.563,0-21.333-14.656-21.333-32s9.771-32,21.333-32s21.333,14.656,21.333,32
		S303.896,482.333,292.333,482.333z"/>
</g>
</svg>
