<?xml version="1.0" encoding="utf-8"?>
<!-- Generator: Adobe Illustrator 24.0.2, SVG Export Plug-In . SVG Version: 6.00 Build 0)  -->
<svg version="1.1" id="Слой_1" xmlns="http://www.w3.org/2000/svg" xmlns:xlink="http://www.w3.org/1999/xlink" x="0px" y="0px"
	 viewBox="0 0 356.09 320.17" style="enable-background:new 0 0 356.09 320.17;" xml:space="preserve">
<style type="text/css">
	.st0{clip-path:url(#SVGID_2_);}
</style>
<g>
	<g>
		<defs>
			<rect id="SVGID_1_" x="2.09" y="3.17" width="354" height="317"/>
		</defs>
		<clipPath id="SVGID_2_">
			<use xlink:href="#SVGID_1_"  style="overflow:visible;"/>
		</clipPath>
		<path class="st0" d="M272.41,136.27c-0.01-0.06-0.01-0.13-0.02-0.19c-0.05-0.32-0.11-0.65-0.2-0.96c0,0,0-0.01,0-0.01
			c-0.08-0.3-0.19-0.59-0.3-0.88c-0.03-0.09-0.07-0.16-0.11-0.25c-0.09-0.21-0.2-0.41-0.31-0.62c-0.05-0.09-0.09-0.18-0.15-0.27
			c-0.03-0.05-0.05-0.1-0.08-0.14c-0.12-0.19-0.25-0.36-0.38-0.54c-0.02-0.03-0.04-0.07-0.07-0.1c-0.2-0.26-0.42-0.5-0.64-0.73
			c-0.04-0.04-0.09-0.08-0.13-0.13c-0.2-0.19-0.4-0.37-0.61-0.54c-0.05-0.04-0.11-0.08-0.16-0.13c-0.29-0.21-0.58-0.41-0.88-0.58
			L150.5,63.22l67.86-42.73l113.76,64.67l-47.91,30.17c-3.74,2.35-4.86,7.3-2.51,11.04c2.36,3.74,7.29,4.86,11.03,2.5l59.22-37.29
			c2.38-1.5,3.8-4.14,3.74-6.95c-0.06-2.81-1.6-5.38-4.04-6.77L222.1,4.22c-2.56-1.46-5.72-1.39-8.21,0.18l-83.17,52.37
			c-0.02,0.01-0.03,0.02-0.05,0.03L89.11,82.97c-0.02,0.01-0.04,0.02-0.06,0.04L5.83,135.41c-2.38,1.5-3.8,4.14-3.73,6.95
			c0.06,2.81,1.6,5.38,4.05,6.77l129.55,73.64c1.23,0.7,2.59,1.05,3.95,1.05c1.48,0,2.96-0.41,4.26-1.23l59.22-37.29
			c3.74-2.35,4.86-7.29,2.51-11.03c-2.35-3.74-7.29-4.86-11.03-2.51l-55.17,34.74L25.67,141.83L93.53,99.1l121.34,68.97v91.35
			c0,2.91,1.58,5.6,4.13,7c1.21,0.66,2.54,1,3.87,1c1.48,0,2.96-0.41,4.26-1.23l41.61-26.2c2.32-1.46,3.74-4.02,3.74-6.77v-96
			c0-0.05-0.01-0.09-0.01-0.14C272.46,136.8,272.44,136.54,272.41,136.27L272.41,136.27z M230.86,244.92v-81.51
			c0-2.88-1.55-5.53-4.05-6.95L108.89,89.42l26.25-16.53l113.77,64.66l-9.96,6.27c-3.74,2.35-4.86,7.29-2.51,11.03
			c1.52,2.42,4.12,3.74,6.78,3.74c1.46,0,2.93-0.4,4.25-1.23l9.01-5.67v77.09L230.86,244.92z M230.86,244.92"/>
		<path class="st0" d="M343.43,110.04l-59.22,37.29c-3.74,2.35-4.86,7.29-2.51,11.03c1.52,2.42,4.12,3.74,6.78,3.74
			c1.45,0,2.93-0.39,4.25-1.23l59.22-37.29c3.74-2.36,4.86-7.29,2.51-11.03C352.11,108.8,347.17,107.68,343.43,110.04L343.43,110.04
			z M343.43,110.04"/>
		<path class="st0" d="M194.6,203.76l-55.17,34.74L14.05,167.22c-3.84-2.18-8.72-0.84-10.91,3c-2.18,3.84-0.84,8.72,3,10.91
			l129.55,73.64c1.23,0.7,2.59,1.05,3.95,1.05c1.48,0,2.96-0.41,4.26-1.23l59.22-37.29c3.74-2.35,4.86-7.29,2.51-11.03
			C203.28,202.53,198.34,201.4,194.6,203.76L194.6,203.76z M194.6,203.76"/>
		<path class="st0" d="M343.43,142.04l-59.22,37.29c-3.74,2.35-4.86,7.29-2.51,11.03c1.52,2.42,4.12,3.74,6.78,3.74
			c1.45,0,2.93-0.39,4.25-1.23l59.22-37.29c3.74-2.36,4.86-7.29,2.51-11.03C352.11,140.8,347.17,139.68,343.43,142.04L343.43,142.04
			z M343.43,142.04"/>
		<path class="st0" d="M194.6,235.76l-55.17,34.74L14.05,199.22c-3.84-2.18-8.72-0.84-10.91,3c-2.18,3.84-0.84,8.72,3,10.91
			l129.55,73.64c1.23,0.7,2.59,1.05,3.95,1.05c1.48,0,2.96-0.41,4.26-1.23l59.22-37.29c3.74-2.35,4.86-7.29,2.51-11.03
			C203.28,234.52,198.34,233.4,194.6,235.76L194.6,235.76z M194.6,235.76"/>
		<path class="st0" d="M343.43,174.04l-59.22,37.29c-3.74,2.35-4.86,7.29-2.51,11.03c1.52,2.42,4.12,3.74,6.78,3.74
			c1.45,0,2.93-0.39,4.25-1.23l59.22-37.29c3.74-2.36,4.86-7.29,2.51-11.03C352.11,172.8,347.17,171.68,343.43,174.04L343.43,174.04
			z M343.43,174.04"/>
		<path class="st0" d="M194.6,267.76l-55.17,34.74L14.05,231.22c-3.84-2.18-8.72-0.84-10.91,3c-2.18,3.84-0.84,8.72,3,10.91
			l129.55,73.64c1.23,0.7,2.59,1.05,3.95,1.05c1.48,0,2.96-0.41,4.26-1.23l59.22-37.29c3.74-2.35,4.86-7.29,2.51-11.03
			C203.28,266.53,198.34,265.4,194.6,267.76L194.6,267.76z M194.6,267.76"/>
	</g>
</g>
</svg>
