<?xml version="1.0" encoding="iso-8859-1"?>
<!-- Generator: Adobe Illustrator 24.0.2, SVG Export Plug-In . SVG Version: 6.00 Build 0)  -->
<svg version="1.1" id="&#x421;&#x43B;&#x43E;&#x439;_1"
	 xmlns="http://www.w3.org/2000/svg" xmlns:xlink="http://www.w3.org/1999/xlink" x="0px" y="0px" viewBox="0 0 409.92 410.88"
	 style="enable-background:new 0 0 409.92 410.88;" xml:space="preserve">
<g>
	<path d="M170.668,328h95.57c3.778,0,6.828-3.059,6.828-6.825c0-3.769-3.05-6.828-6.828-6.828h-95.57
		c-3.777,0-6.828,3.059-6.828,6.828C163.84,324.941,166.891,328,170.668,328L170.668,328z M170.668,328"/>
	<path d="M129.707,61.761c0,3.766,3.051,6.825,6.824,6.825h238.934c11.293,0,20.48,9.191,20.48,20.48v163.84
		c0,3.769,3.051,6.828,6.828,6.828c3.774,0,6.825-3.059,6.825-6.828V89.066c0-18.82-15.309-34.133-34.133-34.133h-238.93
		C132.758,54.933,129.707,57.992,129.707,61.761L129.707,61.761z M129.707,61.761"/>
	<path d="M170.668,287.039h68.266c3.773,0,6.824-3.059,6.824-6.824c0-3.77-3.051-6.829-6.824-6.829h-68.266
		c-3.777,0-6.828,3.059-6.828,6.829C163.84,283.98,166.891,287.039,170.668,287.039L170.668,287.039z M170.668,287.039"/>
	<path d="M238.934,396.265H122.879V89.066c0-18.82-15.313-34.133-34.133-34.133S54.613,70.246,54.613,89.066v232.106
		c0,11.293-9.187,20.48-20.48,20.48c-11.293,0-20.481-9.187-20.481-20.48v-307.2h273.067v20.481c0,3.769,3.051,6.828,6.828,6.828
		c3.773,0,6.824-3.059,6.824-6.828V7.148c0-3.769-3.051-6.828-6.824-6.828H6.828C3.051,0.32,0,3.379,0,7.148v314.024
		c0,18.82,15.312,34.136,34.133,34.136c18.82,0,34.133-15.312,34.133-34.136V89.066c0-11.289,9.191-20.48,20.48-20.48
		c11.293,0,20.481,9.191,20.481,20.48v252.586H75.094c-3.774,0-6.828,3.059-6.828,6.828c0,3.766,3.054,6.824,6.828,6.824h34.133
		v47.789c0,3.766,3.05,6.825,6.828,6.825h122.879c3.773,0,6.828-3.059,6.828-6.825C245.762,399.324,242.707,396.265,238.934,396.265
		L238.934,396.265z M238.934,396.265"/>
	<g>
		<defs>
			<rect id="SVGID_1_" width="409.92" height="410.88"/>
		</defs>
		<clipPath id="SVGID_2_">
			<use xlink:href="#SVGID_1_"  style="overflow:visible;"/>
		</clipPath>
		<path style="clip-path:url(#SVGID_2_);" d="M314.027,280.215c0-3.77-3.05-6.829-6.828-6.829h-40.961
			c-3.773,0-6.824,3.059-6.824,6.829c0,3.765,3.051,6.824,6.824,6.824h40.961C310.977,287.039,314.027,283.98,314.027,280.215
			L314.027,280.215z M314.027,280.215"/>
		<path style="clip-path:url(#SVGID_2_);" d="M401.469,281.519l-13.653-13.656c-10.5-10.492-26.472-10.473-36.961,0l-89.441,89.445
			c-1.285,1.278-2,3.016-2,4.825v40.96c0,3.77,3.051,6.829,6.824,6.829h40.961c1.817,0,3.551-0.719,4.828-2l89.442-89.446
			C412.344,307.601,412.344,292.398,401.469,281.519L401.469,281.519z M342.031,296.004l10.817,10.82l-59.301,59.309l-10.828-10.825
			L342.031,296.004z M273.066,396.265v-31.304l31.309,31.304H273.066z M314.027,386.613l-10.828-10.828l59.313-59.301l10.824,10.82
			L314.027,386.613z M391.816,308.824l-8.828,8.828l-31.304-31.309l8.824-8.828c5.406-5.398,12.234-5.414,17.656,0l13.652,13.657
			C397.34,296.699,397.34,303.3,391.816,308.824L391.816,308.824z M391.816,308.824"/>
	</g>
	<path d="M327.68,239.254V180.64l2,2c1.332,1.332,3.078,2,4.828,2c1.746,0,3.492-0.668,4.824-2c2.668-2.668,2.668-6.984,0-9.652
		l-13.644-13.648l-0.016-0.012l-61.434-61.434c-2.668-2.668-6.98-2.668-9.652,0l-61.43,61.434l-0.015,0.012l-13.645,13.648
		c-2.672,2.668-2.672,6.984,0,9.652c2.668,2.668,6.981,2.668,9.652,0l2-2v58.614c0,3.769,3.051,6.828,6.825,6.828h47.789
		c3.773,0,6.824-3.059,6.824-6.828v-34.133h13.652v34.133c0,3.769,3.055,6.828,6.828,6.828h47.786
		C324.629,246.082,327.68,243.023,327.68,239.254L327.68,239.254z M314.027,232.425h-34.132v-34.132c0-3.77-3.055-6.828-6.829-6.828
		h-27.304c-3.778,0-6.828,3.058-6.828,6.828v34.132h-34.133v-65.441l54.613-54.613l54.613,54.613V232.425z M314.027,232.425"/>
</g>
</svg>
