<?xml version="1.0" encoding="iso-8859-1"?>
<!-- Generator: Adobe Illustrator 24.0.2, SVG Export Plug-In . SVG Version: 6.00 Build 0)  -->
<svg version="1.1" id="&#x421;&#x43B;&#x43E;&#x439;_1"
	 xmlns="http://www.w3.org/2000/svg" xmlns:xlink="http://www.w3.org/1999/xlink" x="0px" y="0px" viewBox="0 0 237.262 236.191"
	 style="enable-background:new 0 0 237.262 236.191;" xml:space="preserve">
<g>
	<path d="M225.832,60.953h-34.988c0.429-1.195,0.703-2.469,0.703-3.808c0-6.301-5.129-11.43-11.43-11.43h-3.808V11.43
		c0-6.301-5.129-11.43-11.43-11.43H73.453c-6.301,0-11.43,5.129-11.43,11.43v30.476c0,2.102-1.711,3.809-3.812,3.809H23.93v-7.621
		c0-6.301-5.129-11.426-11.43-11.426H1.07v45.711H12.5c6.301,0,11.43-5.125,11.43-11.426v-7.621h34.285
		c6.301,0,11.426-5.129,11.426-11.43V11.43c0-2.106,1.711-3.809,3.812-3.809h91.426c2.101,0,3.812,1.703,3.812,3.809v34.285h-3.812
		c-6.301,0-11.426,5.129-11.426,11.43c0,1.339,0.274,2.613,0.699,3.808h-34.988c-6.301,0-11.426,5.129-11.426,11.43H34.02
		L10.211,91.43l23.809,19.047h73.718v7.621H50.836l-32.359-4.047L0,137.145l18.477,23.093l32.359-4.047h56.902v11.43H1.07v57.141
		h134.774c10.433,7.195,23.054,11.429,36.656,11.429c35.711,0,64.762-29.05,64.762-64.761V72.379
		C237.262,66.078,232.133,60.953,225.832,60.953L225.832,60.953z M16.309,60.953c0,2.102-1.711,3.809-3.809,3.809H8.691V34.285H12.5
		c2.098,0,3.809,1.707,3.809,3.809V60.953z M31.547,98.738l-9.141-7.308l9.141-7.317V98.738z M107.738,102.855H39.164v-7.617h68.574
		V102.855z M107.738,87.621H39.164V80h68.574V87.621z M46.785,149.043l-25.023,3.105l-8.953-11.195h4.203
		c1.574,4.422,5.765,7.617,10.726,7.617c6.301,0,11.43-5.125,11.43-11.425c0-6.301-5.129-11.43-11.43-11.43
		c-4.961,0-9.152,3.195-10.73,7.617h-4.199l8.953-11.191l25.023,3.129V149.043z M23.93,137.145c0-2.106,1.707-3.813,3.808-3.813
		c2.098,0,3.809,1.707,3.809,3.813c0,2.101-1.711,3.808-3.809,3.808C25.637,140.953,23.93,139.246,23.93,137.145L23.93,137.145z
		 M107.738,148.57H69.641v-22.855h-7.618v22.855h-7.621v-22.882l53.336,0.027V148.57z M164.879,53.332h15.238
		c2.102,0,3.813,1.707,3.813,3.813c0,2.101-1.711,3.808-3.813,3.808h-15.238c-2.098,0-3.809-1.707-3.809-3.808
		C161.07,55.039,162.781,53.332,164.879,53.332L164.879,53.332z M8.691,217.145v-41.907h7.618v11.43h7.621v-11.43h7.617v15.239
		h7.621v-15.239h7.617v11.43h7.621v-11.43h7.617v15.239h7.622v-15.239h7.617v11.43h7.621v-11.43H92.5v15.239h7.621v-15.239h7.813
		c0.957,16.305,7.894,31.028,18.742,41.907H8.691z M229.641,171.43c0,31.508-25.633,57.14-57.141,57.14s-57.145-25.632-57.145-57.14
		v-57.145h114.286V171.43z M229.641,106.668h-53.332V76.191h-7.618v30.477h-53.336V72.379c0-2.102,1.711-3.809,3.809-3.809h106.668
		c2.102,0,3.809,1.707,3.809,3.809V106.668z M229.641,106.668"/>
</g>
</svg>
