<?xml version="1.0" encoding="iso-8859-1"?>
<!-- Generator: Adobe Illustrator 24.0.2, SVG Export Plug-In . SVG Version: 6.00 Build 0)  -->
<svg version="1.1" id="&#x421;&#x43B;&#x43E;&#x439;_1"
	 xmlns="http://www.w3.org/2000/svg" xmlns:xlink="http://www.w3.org/1999/xlink" x="0px" y="0px" viewBox="0 0 59.332 59"
	 style="enable-background:new 0 0 59.332 59;" xml:space="preserve">
<g>
	<path style="fill:#231F20;" d="M16.457,14.028c3.992,0.894,8.09,1.343,12.18,1.343s8.187-0.449,12.164-1.34
		c0.406-0.082,0.679-0.457,0.637-0.867c-0.571-5.484-4.477-9.984-9.454-11.41V0.801C31.984,0.36,31.629,0,31.188,0
		c-0.446,0-0.801,0.36-0.801,0.801v0.613c-0.578-0.086-1.16-0.144-1.754-0.144c-0.59,0-1.172,0.058-1.746,0.144V0.801
		C26.887,0.36,26.527,0,26.086,0c-0.441,0-0.801,0.36-0.801,0.801V1.75c-4.973,1.43-8.879,5.93-9.453,11.414
		C15.793,13.567,16.059,13.938,16.457,14.028L16.457,14.028z M25.285,3.43v2.476c0,0.442,0.36,0.801,0.801,0.801
		c0.441,0,0.801-0.359,0.801-0.801V3.028c0.574-0.098,1.156-0.157,1.75-0.157c0.593,0,1.175,0.059,1.75,0.157v2.878
		c0,0.442,0.355,0.801,0.801,0.801c0.441,0,0.796-0.359,0.796-0.801v-2.48c3.942,1.312,7.047,4.848,7.77,9.195
		c-7.297,1.528-14.906,1.532-22.234,0C18.242,8.274,21.344,4.742,25.285,3.43L25.285,3.43z M33.59,11.75
		c-1.625,0.363-3.289,0.547-4.953,0.547s-3.328-0.184-4.953-0.547c-0.43-0.097-0.704-0.523-0.606-0.953
		c0.094-0.434,0.524-0.703,0.953-0.609c3.024,0.675,6.196,0.675,9.211,0c0.43-0.094,0.86,0.175,0.953,0.609
		C34.293,11.227,34.02,11.653,33.59,11.75L33.59,11.75z M15.297,17.645c0.015-0.52,0.062-2.102,1.195-2.532
		c1.121-0.421,2.266,0.719,2.481,0.95c0.304,0.324,0.285,0.832-0.035,1.133c-0.325,0.3-0.833,0.285-1.133-0.04
		c-0.219-0.234-0.551-0.468-0.731-0.523c-0.054,0.105-0.16,0.391-0.179,1.059c-0.083,2.738,2.007,3.504,2.097,3.535
		c0.25,0.086,0.446,0.293,0.512,0.547l0.035,0.125c0.016,0.047,0.023,0.093,0.027,0.144c0.61,7.293,6.375,9.653,9.071,9.653
		c2.695,0,8.457-2.36,9.07-9.653c0.004-0.051,0.012-0.101,0.027-0.148l0.032-0.125c0.074-0.258,0.265-0.461,0.519-0.547
		c0.082-0.027,2.172-0.793,2.094-3.531c-0.02-0.668-0.125-0.954-0.18-1.059c-0.179,0.055-0.511,0.289-0.734,0.527
		c-0.301,0.317-0.809,0.332-1.129,0.032c-0.324-0.301-0.34-0.805-0.039-1.129c0.219-0.231,1.363-1.367,2.484-0.95
		c1.133,0.43,1.18,2.012,1.196,2.532c0.082,2.761-1.539,4.297-2.711,4.894c-0.801,7.414-6.653,10.754-10.629,10.754
		c-3.977,0-9.832-3.34-10.629-10.754C16.832,21.942,15.215,20.406,15.297,17.645L15.297,17.645z M46.242,49.696H39.91
		c-1.59,0-4.547,0-4.547,4.652S38.32,59,39.91,59h6.332c2.567,0,4.653-2.09,4.653-4.652C50.895,51.781,48.809,49.696,46.242,49.696
		L46.242,49.696z M46.242,57.399l-6.336,0.004c-1.707,0-2.941,0-2.941-3.055c0-2.672,0.945-3.008,2.328-3.047v2.09
		c0,0.441,0.359,0.797,0.801,0.797c0.441,0,0.801-0.356,0.801-0.797v-2.098l1.707,0.004v2.094c0,0.441,0.355,0.797,0.796,0.797
		c0.442,0,0.801-0.356,0.801-0.797v-2.094h1.594v2.094c0,0.441,0.359,0.797,0.801,0.797c0.441,0,0.797-0.356,0.797-0.797v-1.867
		c1.117,0.457,1.902,1.547,1.902,2.824C49.293,56.031,47.926,57.399,46.242,57.399L46.242,57.399z M19.312,49.696H12.98
		c-2.566,0-4.652,2.085-4.652,4.652C8.328,56.91,10.414,59,12.98,59h6.332c1.59,0,4.547,0,4.547-4.652S20.902,49.696,19.312,49.696
		L19.312,49.696z M19.312,57.399h-6.335c-1.68,0-3.051-1.371-3.051-3.051c0-1.277,0.789-2.371,1.902-2.824v1.863
		c0,0.441,0.36,0.801,0.801,0.801s0.801-0.36,0.801-0.801v-2.09l1.593-0.004v2.094c0,0.441,0.356,0.801,0.797,0.801
		c0.442,0,0.801-0.36,0.801-0.801v-2.094h1.707v2.094c0,0.441,0.36,0.801,0.801,0.801c0.441,0,0.801-0.36,0.801-0.801v-2.09
		c1.382,0.043,2.328,0.375,2.328,3.047C22.258,57.399,21.023,57.399,19.312,57.399L19.312,57.399z M34.668,54.348
		c0,0.441-0.359,0.801-0.801,0.801h-8.062c-0.442,0-0.801-0.36-0.801-0.801c0-0.442,0.359-0.801,0.801-0.801h8.062
		C34.309,53.547,34.668,53.906,34.668,54.348L34.668,54.348z M4.918,49.246c0,0.582-0.473,1.051-1.051,1.051
		c-0.582,0-1.051-0.469-1.051-1.051c0-0.578,0.469-1.047,1.051-1.047C4.445,48.199,4.918,48.668,4.918,49.246L4.918,49.246z
		 M58.535,40.371h-6.137c-0.441,0-0.796,0.36-0.796,0.801v2.176h-9.411l1.864-7.883c1.621,1.574,2.883,3.508,3.605,5.621
		c0.113,0.332,0.422,0.543,0.754,0.543c0.086,0,0.176-0.016,0.262-0.043c0.418-0.144,0.64-0.598,0.496-1.015
		c-1.57-4.598-5.426-8.426-10.07-9.997l0.035-0.668c0.023-0.437-0.313-0.816-0.754-0.839c-0.434-0.02-0.821,0.312-0.844,0.754
		l-0.203,3.722l-2.324-1.086c-0.399-0.191-0.875-0.019-1.063,0.383c-0.187,0.398-0.015,0.875,0.383,1.063l3.398,1.593
		c0.106,0.051,0.223,0.078,0.34,0.078c0.141,0,0.285-0.039,0.41-0.113c0.227-0.137,0.375-0.379,0.387-0.644l0.141-2.571
		c0.426,0.16,0.844,0.336,1.25,0.535l-1.75,7.247H18.41l-1.668-7.043c0.528-0.278,1.067-0.52,1.625-0.727l0.137,2.559
		c0.016,0.265,0.16,0.507,0.391,0.644c0.125,0.074,0.265,0.113,0.41,0.113c0.117,0,0.23-0.027,0.34-0.078l3.394-1.593
		c0.402-0.188,0.574-0.665,0.387-1.063c-0.192-0.402-0.668-0.574-1.067-0.383l-2.32,1.086l-0.203-3.722
		c-0.027-0.442-0.414-0.778-0.844-0.754c-0.441,0.023-0.781,0.402-0.754,0.839l0.035,0.668c-1.007,0.344-1.98,0.797-2.902,1.34
		c-0.012,0.008-0.019,0.012-0.031,0.02c-0.82,0.484-1.602,1.035-2.332,1.66c-0.004,0.004-0.008,0.008-0.012,0.012
		c-1.465,1.254-2.726,2.757-3.672,4.453c-0.453,0.804-0.832,1.652-1.125,2.512c-0.14,0.417,0.082,0.871,0.5,1.015
		c0.086,0.027,0.172,0.043,0.258,0.043c0.332,0,0.645-0.211,0.758-0.543c0.262-0.765,0.597-1.523,1.004-2.246
		c0.629-1.121,1.41-2.148,2.301-3.066l1.789,7.574H7.734v-2.176c0-0.441-0.359-0.801-0.8-0.801H0.801
		C0.359,40.371,0,40.731,0,41.172v16.152c0,0.442,0.359,0.801,0.801,0.801h6.133c0.441,0,0.8-0.359,0.8-0.801V44.949h43.868v12.375
		c0,0.442,0.355,0.801,0.796,0.801h6.137c0.442,0,0.797-0.359,0.797-0.801V41.172C59.332,40.731,58.977,40.371,58.535,40.371
		L58.535,40.371z M6.133,56.524H4.898c-0.054-0.532-0.488-0.95-1.031-0.95c-0.543,0-0.976,0.418-1.031,0.95H1.602V41.973h1.234
		c0.051,0.531,0.484,0.953,1.031,0.953s0.981-0.422,1.031-0.953h1.235V56.524z M42.691,34.289l-2.144,9.059h-1.192l2.352-9.746
		C42.043,33.817,42.371,34.047,42.691,34.289L42.691,34.289z M38.125,41.629l-0.418,1.719H19.195l-0.406-1.719H38.125z
		 M14.371,34.543c0.301-0.246,0.609-0.48,0.93-0.699l2.25,9.504h-1.098L14.371,34.543z M57.734,56.524h-1.238
		c-0.051-0.532-0.484-0.95-1.027-0.95c-0.547,0-0.977,0.418-1.031,0.95h-1.239V41.973h1.235c0.05,0.531,0.488,0.953,1.031,0.953
		c0.547,0,0.984-0.422,1.031-0.953h1.238V56.524z M56.516,49.246c0,0.582-0.469,1.051-1.051,1.051c-0.578,0-1.051-0.469-1.051-1.051
		c0-0.578,0.473-1.047,1.051-1.047C56.047,48.199,56.516,48.668,56.516,49.246L56.516,49.246z M20.02,16.879
		c-0.442,0-0.801,0.359-0.801,0.801c0,2.195,0.469,3.848,1.386,4.91c0.805,0.93,1.918,1.398,3.305,1.398
		c1.922,0,3.891-0.929,4.727-1.382c0.836,0.445,2.793,1.359,4.707,1.359c1.758,0,4.711-0.816,4.711-6.285
		c0-0.442-0.36-0.801-0.801-0.801H20.02z M33.344,22.363c-2.02,0-4.27-1.343-4.293-1.359c-0.254-0.152-0.578-0.152-0.832,0.004
		c-0.024,0.012-2.274,1.383-4.309,1.383c-0.914,0-1.601-0.278-2.094-0.848c-0.558-0.648-0.886-1.676-0.972-3.066H36.43
		C36.176,22.363,34.066,22.363,33.344,22.363L33.344,22.363z M33.344,22.363"/>
</g>
</svg>
