<?xml version="1.0" encoding="iso-8859-1"?>
<!-- Generator: Adobe Illustrator 24.0.2, SVG Export Plug-In . SVG Version: 6.00 Build 0)  -->
<svg version="1.1" id="Layer_1" xmlns="http://www.w3.org/2000/svg" xmlns:xlink="http://www.w3.org/1999/xlink" x="0px" y="0px"
	 viewBox="-49 141 512 512" style="enable-background:new -49 141 512 512;" xml:space="preserve">
<rect x="57.602" y="583.474" width="15.192" height="16.909"/>
<path d="M384.981,464.968c23.167-12.796,38.898-37.47,38.898-65.757c0-31.705-19.765-58.862-47.613-69.849
	c0.464-4.874,0.787-9.701,0.787-14.63c0-2.142-0.029-4.297-0.085-6.406l-15.188,0.405c0.053,1.974,0.08,3.994,0.08,6.001
	c0,2.717-0.049,5.51-0.147,8.319l-0.224,2.18c-4.126-0.705-8.359-1.093-12.684-1.093c-24.212,0-45.769,11.532-59.506,29.379
	c-6.496-36.719-37.021-65.231-74.701-68.643v-7.385h-15.194v7.385c-37.681,3.412-68.205,31.925-74.701,68.643
	c-13.737-17.847-35.295-29.379-59.506-29.379c-2.993,0-5.938,0.196-8.84,0.538c-0.077-1.733-0.144-3.288-0.144-3.648
	c-0.001-4.002,0.127-8.062,0.379-12.065l-15.163-0.954c-0.418,6.651-0.078,13.311,0.121,19.967
	c-29.841,9.932-51.427,38.102-51.427,71.236c0,28.287,15.731,52.961,38.898,65.757C-16.271,480.134-49,522.958-49,573.287v79.633
	H79.334h100.058h55.216h100.058H463v-79.633C463,522.958,430.272,480.134,384.981,464.968z M348.804,459.092
	c-29.13,0-53.455-20.911-58.784-48.508c17.268-5.953,29.568-14.117,38.038-21.634c11.018,7.814,36.693,22.042,79.057,23.83
	C400.95,439.28,377.156,459.092,348.804,459.092z M374.725,477.734l-25.921,29.715l-25.921-29.715
	c8.266-2.244,16.954-3.45,25.921-3.45S366.459,475.489,374.725,477.734z M348.804,339.329c32.49,0,59,26.014,59.841,58.306
	c-36.857-1.409-59.736-13.122-69.98-19.887c3.738-4.781,5.421-8.131,5.614-8.53l-13.67-6.631
	c-0.106,0.218-10.051,20.033-41.503,32.171C291.395,363.814,317.285,339.329,348.804,339.329z M312.629,464.968
	c-5.927,1.985-11.637,4.447-17.089,7.333c-14.052-13.546-31.192-23.909-50.247-29.913c12.136-6.281,22.541-15.442,30.31-26.583
	C280.396,436.96,294.133,454.751,312.629,464.968z M207,436.519c-33.565,0-61.542-24.307-67.301-56.239
	c20.126-6.814,34.284-16.307,43.875-24.944c12.019,8.679,41.254,25.345,90.298,27.162C267.244,413.332,239.785,436.519,207,436.519z
	 M237.925,456.036l-30.924,35.451l-30.924-35.451c9.829-2.815,20.204-4.325,30.924-4.325
	C217.721,451.711,228.096,453.221,237.925,456.036z M207,299.705c37.46,0,67.969,30.27,68.387,67.634
	c-43.398-1.449-69.893-15.522-81.197-23.177c4.592-5.729,6.623-9.786,6.848-10.251l-13.65-6.671
	c-0.518,1.038-12.249,23.713-48.701,37.285C140.56,328.466,170.484,299.705,207,299.705z M168.708,442.388
	c-19.056,6.004-36.195,16.367-50.247,29.913c-5.452-2.887-11.162-5.349-17.089-7.333c18.496-10.217,32.232-28.008,37.026-49.162
	C146.167,426.947,156.573,436.107,168.708,442.388z M65.196,339.329c32.49,0,59,26.014,59.84,58.306
	c-36.857-1.409-59.735-13.122-69.98-19.887c3.738-4.781,5.421-8.131,5.614-8.531l-13.647-6.676
	c-0.451,0.897-10.493,20.259-41.525,32.221C7.784,363.816,33.676,339.329,65.196,339.329z M6.412,410.583
	c17.268-5.953,29.568-14.117,38.038-21.634c11.018,7.815,36.693,22.042,79.057,23.83c-6.165,26.501-29.96,46.312-58.311,46.312
	C36.066,459.092,11.741,438.18,6.412,410.583z M91.116,477.734l-25.921,29.715l-25.921-29.715c8.266-2.244,16.954-3.45,25.921-3.45
	S82.851,475.489,91.116,477.734z M79.334,637.727H13.441v-61.054H-1.751v61.054h-32.056v-64.439
	c0-39.882,23.708-74.328,57.768-89.997l33.638,38.562v47.297h15.192v-47.297l33.638-38.562c0.456,0.21,0.912,0.421,1.364,0.637
	c-17.787,21.943-28.461,49.875-28.461,80.257L79.334,637.727L79.334,637.727z M319.474,637.727h-38.026v-69.729h-15.192v69.729
	h-16.454h-85.602h-16.454v-69.729h-15.192v69.729H94.527v-73.542c0-45.563,27.234-84.884,66.277-102.543l38.599,44.249v53.634
	h15.192v-53.634l38.599-44.249c39.044,17.659,66.278,56.98,66.278,102.543V637.727z M447.808,637.727h-32.056v-61.054h-15.192
	v61.054h-65.892v-73.542c0-30.382-10.674-58.313-28.461-80.257c0.453-0.216,0.908-0.428,1.365-0.637l33.638,38.562v47.297h15.192
	v-47.297l33.638-38.562c34.06,15.669,57.768,50.114,57.768,89.997V637.727z"/>
<rect x="341.205" y="583.474" width="15.192" height="16.909"/>
<rect x="199.404" y="575.662" width="15.192" height="19.046"/>
<rect x="383.331" y="167.828" width="15.192" height="16.909"/>
<rect x="425.859" y="246.176" width="15.192" height="16.909"/>
<rect x="20.13" y="176.282" width="15.192" height="16.909"/>
<rect x="-36.172" y="258.365" width="15.192" height="16.909"/>
<path d="M60.657,280.066l-14.834-3.282c-1.127,5.095-2.07,10.321-2.802,15.533l15.046,2.112
	C58.743,289.607,59.615,284.775,60.657,280.066z"/>
<path d="M69.232,252.262l-14.092-5.678c-1.95,4.837-3.729,9.857-5.287,14.919l14.521,4.47
	C65.807,261.319,67.442,256.705,69.232,252.262z"/>
<path d="M122.016,184.826l-8.825-12.366c-4.303,3.07-8.507,6.381-12.494,9.84l9.956,11.477
	C114.278,190.631,118.102,187.619,122.016,184.826z"/>
<path d="M100.198,203.76l-11.007-10.473c-3.649,3.835-7.149,7.887-10.402,12.043l11.965,9.364
	C93.707,210.921,96.884,207.242,100.198,203.76z"/>
<path d="M82.418,226.489l-12.822-8.151c-2.807,4.415-5.459,9.061-7.883,13.808l13.531,6.909
	C77.452,234.731,79.866,230.503,82.418,226.489z"/>
<path d="M147.024,170.317l-6.357-13.798c-4.795,2.209-9.543,4.672-14.113,7.324l7.623,13.141
	C138.338,174.57,142.66,172.327,147.024,170.317z"/>
<path d="M174.302,160.747L170.65,146c-5.121,1.268-10.248,2.799-15.243,4.551l5.03,14.336
	C164.98,163.292,169.645,161.899,174.302,160.747z"/>
<path d="M355.635,265.039l14.633-4.09c-1.454-5.2-3.164-10.297-5.083-15.147l-14.127,5.59
	C352.784,255.753,354.323,260.344,355.635,265.039z"/>
<path d="M344.709,238.391l13.513-6.944c-2.412-4.695-5.084-9.334-7.94-13.79l-12.79,8.201
	C340.088,229.908,342.517,234.124,344.709,238.391z"/>
<path d="M261.689,149.623c-4.996-1.729-10.13-3.24-15.261-4.488l-3.59,14.764c4.666,1.135,9.336,2.509,13.879,4.082L261.689,149.623
	z"/>
<path d="M360.876,294.112l15.12-1.492c-0.526-5.328-1.258-10.596-2.178-15.657l-14.949,2.716
	C359.716,284.336,360.391,289.192,360.876,294.112z"/>
<path d="M291.134,162.303c-4.57-2.637-9.328-5.088-14.142-7.286l-6.31,13.821c4.378,1.999,8.704,4.227,12.86,6.625L291.134,162.303z
	"/>
<path d="M307.765,191.781l9.977-11.459c-0.636-0.554-1.276-1.102-1.915-1.64c-3.396-2.866-6.958-5.631-10.588-8.219l-8.821,12.37
	c3.295,2.349,6.528,4.859,9.614,7.464C306.615,190.786,307.191,191.281,307.765,191.781z"/>
<path d="M340.225,204.239c-3.261-4.162-6.758-8.214-10.392-12.041l-11.018,10.46c3.305,3.482,6.485,7.167,9.452,10.954
	L340.225,204.239z"/>
<rect x="199.404" y="186.971" width="15.192" height="15.086"/>
<rect x="199.404" y="217.144" width="15.192" height="15.086"/>
<rect x="199.404" y="247.317" width="15.192" height="15.086"/>
<path d="M189.384,157.925c1.893-0.237,6.156-0.841,10.02-1.115v15.075h15.192v-15.482c0.9,0.019,1.811,0.047,2.728,0.083
	l-0.001,0.015c4.14,0.196,5.948,0.407,10.081,0.948c0.077,0.012,0.128,0.02,0.167,0.027l2.405-15.003
	c-19.542-2.529-34.711-1.204-44.895,0.701l2.225,15.029C187.997,158.104,188.69,158.017,189.384,157.925z"/>
</svg>
