<?xml version="1.0" encoding="utf-8"?>
<!-- Generator: Adobe Illustrator 24.0.2, SVG Export Plug-In . SVG Version: 6.00 Build 0)  -->
<svg version="1.1" id="Слой_1" xmlns="http://www.w3.org/2000/svg" xmlns:xlink="http://www.w3.org/1999/xlink" x="0px" y="0px"
	 viewBox="0 0 48 48" style="enable-background:new 0 0 48 48;" xml:space="preserve">
<g>
	<path d="M48,29.6V0.8C48,0.32,47.68,0,47.2,0H0.8C0.32,0,0,0.32,0,0.8v37.6c0,0.48,0.32,0.8,0.8,0.8h8v-1.6H1.6v-36h44.8v27.2h-8
		c-0.48,0-0.8,0.32-0.8,0.8v8H20v1.6h18.4c0.24,0,0.4-0.08,0.56-0.24l8.8-8.8c0.08-0.08,0.08-0.16,0.16-0.24v-0.08
		C48,29.76,48,29.68,48,29.6L48,29.6z M39.2,30.4h6.08l-6.08,6.08V30.4z M39.2,30.4"/>
	<path d="M15.12,7.76c-0.08-0.32-0.4-0.56-0.72-0.56c-0.32,0-0.64,0.24-0.72,0.56l-2.32,6.96c-0.08,0.16-0.16,0.32-0.16,0.48v32
		c0,0.48,0.32,0.8,0.8,0.8h4.8c0.48,0,0.8-0.32,0.8-0.8v-32c0-0.16-0.08-0.4-0.16-0.48L15.12,7.76z M12.8,16h0.8v24.8h-0.8V16z
		 M15.2,16H16v24.8h-0.8V16z M14.4,10.56l1.28,3.84h-2.56L14.4,10.56z M16,46.4h-3.2v-4H16V46.4z M16,46.4"/>
	<path d="M28,4.8c-4,0-7.2,3.2-7.2,7.2v1.6h1.6V12c0-3.12,2.48-5.6,5.6-5.6c3.12,0,5.6,2.48,5.6,5.6v1.6h1.6V12
		C35.2,8,32,4.8,28,4.8L28,4.8z M28,4.8"/>
	<path d="M43.2,12.8v-1.6h-1.6v1.6c0,3.12-2.48,5.6-5.6,5.6c-3.12,0-5.6-2.48-5.6-5.6v-1.6h-1.6v1.6c0,4,3.2,7.2,7.2,7.2
		C40,20,43.2,16.8,43.2,12.8L43.2,12.8z M43.2,12.8"/>
	<path d="M20,26.4v8c0,0.48,0.32,0.8,0.8,0.8h8c0.48,0,0.8-0.32,0.8-0.8v-8c0-0.48-0.32-0.8-0.8-0.8h-8C20.32,25.6,20,25.92,20,26.4
		L20,26.4z M21.6,27.2H28v6.4h-6.4V27.2z M21.6,27.2"/>
	<path d="M31.2,28v1.6h1.6c0.48,0,0.8-0.32,0.8-0.8v-6.4c0-0.48-0.32-0.8-0.8-0.8h-6.4c-0.48,0-0.8,0.32-0.8,0.8V24h1.6v-0.8H32V28
		H31.2z M31.2,28"/>
	<rect x="4.8" y="4" width="1.6" height="1.6"/>
	<rect x="8" y="4" width="1.6" height="1.6"/>
	<rect x="11.2" y="4" width="1.6" height="1.6"/>
	<rect x="8" y="7.2" width="1.6" height="1.6"/>
	<rect x="4.8" y="7.2" width="1.6" height="1.6"/>
	<rect x="4.8" y="10.4" width="1.6" height="1.6"/>
	<rect x="4.8" y="13.6" width="1.6" height="1.6"/>
	<rect x="4.8" y="16.8" width="1.6" height="1.6"/>
	<rect x="4.8" y="20" width="1.6" height="1.6"/>
	<rect x="4.8" y="23.2" width="1.6" height="1.6"/>
	<rect x="4.8" y="26.4" width="1.6" height="1.6"/>
	<rect x="4.8" y="29.6" width="1.6" height="1.6"/>
	<rect x="4.8" y="32.8" width="1.6" height="1.6"/>
</g>
</svg>
