<?xml version="1.0" encoding="utf-8"?>
<!-- Generator: Adobe Illustrator 24.0.2, SVG Export Plug-In . SVG Version: 6.00 Build 0)  -->
<svg version="1.1" id="Слой_1" xmlns="http://www.w3.org/2000/svg" xmlns:xlink="http://www.w3.org/1999/xlink" x="0px" y="0px"
	 viewBox="0 0 257.6 353.6" style="enable-background:new 0 0 257.6 353.6;" xml:space="preserve">
<g>
	<path d="M255.93,294.48c0.11-0.14,0.22-0.28,0.32-0.43c0.04-0.05,0.07-0.11,0.1-0.16c0.11-0.17,0.21-0.34,0.3-0.51
		c0.02-0.04,0.04-0.07,0.05-0.11c0.1-0.2,0.2-0.39,0.28-0.59c0.01-0.03,0.02-0.05,0.03-0.07c0.09-0.22,0.17-0.44,0.24-0.66
		c0.01-0.03,0.01-0.06,0.02-0.08c0.07-0.22,0.13-0.45,0.17-0.67c0.02-0.07,0.02-0.14,0.03-0.2c0.04-0.19,0.07-0.38,0.09-0.58
		c0.03-0.26,0.04-0.53,0.04-0.8V8c0-4.42-3.58-8-8-8H8C3.58,0,0,3.58,0,8v337.6c0,4.42,3.58,8,8,8h185.6c0.27,0,0.53-0.02,0.8-0.04
		c0.2-0.02,0.39-0.05,0.58-0.09c0.07-0.01,0.13-0.02,0.2-0.03c0.23-0.04,0.45-0.1,0.68-0.17c0.02-0.01,0.05-0.01,0.08-0.02
		c0.23-0.07,0.45-0.15,0.66-0.24c0.02-0.01,0.05-0.02,0.07-0.03c0.2-0.09,0.4-0.18,0.59-0.28c0.04-0.02,0.08-0.04,0.11-0.05
		c0.18-0.09,0.35-0.2,0.52-0.31c0.05-0.03,0.11-0.06,0.16-0.1c0.15-0.1,0.29-0.21,0.44-0.32c0.06-0.05,0.13-0.09,0.2-0.15
		c0.14-0.12,0.29-0.25,0.42-0.38c0.05-0.05,0.1-0.09,0.16-0.14l56-56c0.05-0.05,0.09-0.11,0.14-0.16c0.13-0.14,0.26-0.28,0.38-0.42
		C255.83,294.62,255.88,294.55,255.93,294.48L255.93,294.48z M16,16h225.6v265.6h-48c-4.42,0-8,3.58-8,8v48H16V16z M230.28,297.6
		l-28.68,28.68V297.6H230.28z M230.28,297.6"/>
	<path d="M92.91,182.03c-3.48-2.71-8.51-2.09-11.22,1.4l-20.64,26.54l-8.07-6.41c-3.46-2.75-8.49-2.17-11.24,1.29
		c-2.75,3.46-2.17,8.49,1.29,11.24l14.4,11.43c1.42,1.13,3.18,1.74,4.97,1.74c0.32,0,0.64-0.02,0.95-0.06
		c2.12-0.25,4.05-1.34,5.36-3.03l25.6-32.91C97.03,189.77,96.4,184.74,92.91,182.03L92.91,182.03z M92.91,182.03"/>
	<path d="M92.91,126.03c-3.48-2.71-8.51-2.08-11.22,1.4l-20.64,26.54l-8.07-6.41c-3.46-2.75-8.49-2.17-11.24,1.29
		c-2.75,3.46-2.17,8.49,1.29,11.24l14.4,11.43c1.42,1.13,3.18,1.74,4.97,1.74c0.32,0,0.64-0.02,0.95-0.06
		c2.12-0.25,4.05-1.34,5.36-3.03l25.6-32.91C97.03,133.77,96.4,128.74,92.91,126.03L92.91,126.03z M92.91,126.03"/>
	<path d="M92.91,70.03c-3.48-2.71-8.51-2.09-11.22,1.4L61.05,97.97l-8.07-6.41c-3.46-2.75-8.49-2.17-11.24,1.29
		c-2.75,3.46-2.17,8.49,1.29,11.24l14.4,11.43c1.42,1.13,3.18,1.74,4.97,1.74c0.32,0,0.64-0.02,0.95-0.06
		c2.12-0.25,4.05-1.34,5.36-3.03l25.6-32.91C97.03,77.77,96.4,72.74,92.91,70.03L92.91,70.03z M92.91,70.03"/>
	<path d="M112,100.8h89.6c4.42,0,8-3.58,8-8c0-4.42-3.58-8-8-8H112c-4.42,0-8,3.58-8,8C104,97.22,107.58,100.8,112,100.8L112,100.8z
		 M112,100.8"/>
	<path d="M112,156.8h89.6c4.42,0,8-3.58,8-8s-3.58-8-8-8H112c-4.42,0-8,3.58-8,8S107.58,156.8,112,156.8L112,156.8z M112,156.8"/>
	<path d="M201.6,212.8c4.42,0,8-3.58,8-8c0-4.42-3.58-8-8-8H112c-4.42,0-8,3.58-8,8c0,4.42,3.58,8,8,8H201.6z M201.6,212.8"/>
</g>
</svg>
