<?xml version="1.0" encoding="iso-8859-1"?>
<!-- Generator: Adobe Illustrator 24.0.2, SVG Export Plug-In . SVG Version: 6.00 Build 0)  -->
<svg version="1.1" id="Layer_1" xmlns="http://www.w3.org/2000/svg" xmlns:xlink="http://www.w3.org/1999/xlink" x="0px" y="0px"
	 viewBox="-49 141 512 512" style="enable-background:new -49 141 512 512;" xml:space="preserve">
<path d="M438.463,373.092c-4.15-5.321-11.825-6.267-17.147-2.12c-5.32,4.15-6.269,11.826-2.12,17.147
	c4.078,5.23,4.078,12.533,0,17.763c-29.884,38.315-68.55,67.106-112.08,84.513c22.879-24.497,36.888-57.346,36.888-93.395
	c0-35.907-13.892-68.638-36.576-93.083c25.153,10.114,48.798,24.014,69.966,41.37c2.627,2.153,5.246,4.386,7.79,6.638
	c5.052,4.473,12.772,4.003,17.245-1.048s4.003-12.773-1.048-17.245c-2.773-2.457-5.632-4.892-8.496-7.239
	c-52.22-42.815-118.237-66.395-185.886-66.395c-91.043,0-175.408,41.221-231.463,113.094c-10.979,14.077-10.979,33.74,0,47.818
	c56.055,71.873,140.42,113.094,231.463,113.094c91.041,0,175.407-41.221,231.465-113.094
	C449.442,406.831,449.442,387.17,438.463,373.092z M319.572,397c0,62.025-50.416,112.487-112.424,112.567
	c-0.049,0-0.098,0.001-0.148,0.001c-0.05,0-0.098-0.001-0.148-0.001C144.845,509.487,94.429,459.025,94.429,397
	s50.416-112.487,112.424-112.567c0.049,0,0.098-0.001,0.148-0.001c0.038,0,0.076,0.001,0.114,0.001
	C269.136,284.494,319.572,334.963,319.572,397z M-5.197,405.882c-4.078-5.23-4.078-12.533,0-17.763
	c29.877-38.308,68.535-67.095,112.057-84.504C84.005,328.1,69.995,360.936,69.995,397c0,36.051,14.01,68.9,36.865,93.386
	C63.338,472.977,24.68,444.19-5.197,405.882z"/>
<path d="M155.16,397c0,28.587,23.253,51.84,51.84,51.84s51.84-23.253,51.84-51.84s-23.253-51.84-51.84-51.84
	S155.16,368.413,155.16,397z M234.406,397c0,15.108-12.298,27.406-27.406,27.406c-15.108,0-27.406-12.298-27.406-27.406
	s12.298-27.406,27.406-27.406C222.108,369.594,234.406,381.892,234.406,397z"/>
<path d="M207,211.247c6.748,0,12.217-5.469,12.217-12.217v-45.813c0-6.748-5.469-12.217-12.217-12.217
	c-6.748,0-12.217,5.469-12.217,12.217v45.813C194.783,205.778,200.252,211.247,207,211.247z"/>
<path d="M207,582.753c-6.748,0-12.217,5.469-12.217,12.217v45.813c0,6.748,5.469,12.217,12.217,12.217
	c6.748,0,12.217-5.469,12.217-12.217V594.97C219.217,588.222,213.746,582.753,207,582.753z"/>
<path d="M356.584,259.632c3.126,0,6.252-1.193,8.639-3.578l22.797-22.795c4.771-4.771,4.771-12.506,0-17.279
	c-4.771-4.77-12.505-4.77-17.279,0l-22.795,22.795c-4.771,4.771-4.771,12.506,0,17.279
	C350.332,258.439,353.457,259.632,356.584,259.632z"/>
<path d="M48.777,537.946L25.98,560.741c-4.771,4.771-4.771,12.506,0,17.279c2.386,2.385,5.513,3.578,8.639,3.578
	c3.126,0,6.252-1.193,8.639-3.578l22.797-22.795c4.771-4.771,4.771-12.506,0-17.279C61.284,533.177,53.55,533.176,48.777,537.946z"
	/>
<path d="M48.777,256.054c2.385,2.385,5.513,3.578,8.639,3.578c3.126,0,6.254-1.193,8.639-3.578c4.771-4.773,4.77-12.507,0-17.279
	L43.258,215.98c-4.771-4.77-12.506-4.77-17.277,0c-4.771,4.773-4.77,12.507,0,17.279L48.777,256.054z"/>
<path d="M365.223,537.946c-4.773-4.77-12.506-4.77-17.279,0c-4.771,4.773-4.771,12.507,0,17.279l22.797,22.795
	c2.386,2.385,5.513,3.578,8.639,3.578s6.252-1.193,8.639-3.578c4.771-4.773,4.771-12.507,0-17.279L365.223,537.946z"/>
</svg>
