<?xml version="1.0" encoding="iso-8859-1"?>
<!-- Generator: Adobe Illustrator 24.0.2, SVG Export Plug-In . SVG Version: 6.00 Build 0)  -->
<svg version="1.1" id="&#x421;&#x43B;&#x43E;&#x439;_1"
	 xmlns="http://www.w3.org/2000/svg" xmlns:xlink="http://www.w3.org/1999/xlink" x="0px" y="0px" viewBox="0 0 48 48"
	 style="enable-background:new 0 0 48 48;" xml:space="preserve">
<g>
	<path d="M46.398,0H1.602C0.641,0,0,0.641,0,1.602v44.796C0,47.359,0.641,48,1.602,48h44.796C47.359,48,48,47.359,48,46.398V1.602
		C48,0.641,47.359,0,46.398,0L46.398,0z M46.398,46.398H1.602V1.602h44.796V46.398z M46.398,46.398"/>
	<path d="M5.602,16h36.796c0.481,0,0.801-0.32,0.801-0.801V5.602c0-0.481-0.32-0.801-0.801-0.801H5.602
		c-0.481,0-0.801,0.32-0.801,0.801v9.597C4.801,15.68,5.121,16,5.602,16L5.602,16z M6.398,6.398h35.204v8H6.398V6.398z M6.398,6.398
		"/>
	<path d="M5.602,30.398h36.796c0.481,0,0.801-0.32,0.801-0.796V20c0-0.48-0.32-0.801-0.801-0.801H5.602
		c-0.481,0-0.801,0.321-0.801,0.801v9.602C4.801,30.078,5.121,30.398,5.602,30.398L5.602,30.398z M6.398,20.801h35.204v8H6.398
		V20.801z M6.398,20.801"/>
	<path d="M21.602,33.602H6.398c-0.476,0-0.796,0.32-0.796,0.796v8c0,0.481,0.32,0.801,0.796,0.801h15.204
		c0.476,0,0.796-0.32,0.796-0.801v-8C22.398,33.922,22.078,33.602,21.602,33.602L21.602,33.602z M20.801,41.602H7.199v-6.403h13.602
		V41.602z M20.801,41.602"/>
	<path d="M41.602,33.602H26.398c-0.476,0-0.796,0.32-0.796,0.796v8c0,0.481,0.32,0.801,0.796,0.801h15.204
		c0.476,0,0.796-0.32,0.796-0.801v-8C42.398,33.922,42.078,33.602,41.602,33.602L41.602,33.602z M40.801,41.602H27.199v-6.403
		h13.602V41.602z M40.801,41.602"/>
	<rect x="30.398" y="37.602" width="7.203" height="1.598"/>
	<rect x="10.398" y="37.602" width="7.203" height="1.598"/>
	<rect x="9.602" y="9.602" width="4" height="1.598"/>
	<rect x="16.801" y="9.602" width="4" height="1.598"/>
	<rect x="24" y="9.602" width="4" height="1.598"/>
	<rect x="31.199" y="9.602" width="4" height="1.598"/>
	<rect x="9.602" y="24" width="4" height="1.602"/>
	<rect x="16.801" y="24" width="4" height="1.602"/>
	<rect x="24" y="24" width="4" height="1.602"/>
	<rect x="31.199" y="24" width="4" height="1.602"/>
</g>
</svg>
